<?xml version="1.0" ?><!DOCTYPE svg  PUBLIC '-//W3C//DTD SVG 1.1//EN'  'http://www.w3.org/Graphics/SVG/1.1/DTD/svg11.dtd'><svg height="30mm" style="shape-rendering:geometricPrecision; text-rendering:geometricPrecision; image-rendering:optimizeQuality; fill-rule:evenodd; clip-rule:evenodd" version="1.1" viewBox="0 0 9391 9391" width="30mm" xml:space="preserve" xmlns="http://www.w3.org/2000/svg" xmlns:xlink="http://www.w3.org/1999/xlink"><defs><style type="text/css">
   <![CDATA[
    .fil1 {fill:#FEFEFE}
    .fil0 {fill:#E31E24}
    .fil3 {fill:#009846}
    .fil2 {fill:#2B2A29;fill-opacity:0.101961}
   ]]>
  </style></defs><g id="Layer_x0020_1"><g id="_101218229808"><circle class="fil0" cx="4695" cy="4695" r="4695"/><path class="fil1" d="M7331 3392c-127,270 -213,565 -235,910 -32,500 83,973 326,1382 48,83 115,180 176,255 22,27 46,49 62,76 -137,-51 -373,-263 -465,-385 -182,-242 -188,-353 -224,-622 -77,177 -116,563 -97,778 2,23 4,45 7,68 15,115 43,224 81,324 17,46 37,90 58,132 14,26 28,51 42,74 13,21 26,40 39,59 177,248 630,537 449,792 -72,102 -198,81 -334,55 31,109 133,231 222,318 -716,675 -1681,1088 -2743,1088 -1105,0 -2105,-448 -2829,-1172 -724,-724 -1172,-1724 -1172,-2829 0,-1105 448,-2105 1172,-2829 724,-724 1724,-1172 2829,-1172 1105,0 2105,448 2829,1172 299,299 551,645 744,1027 -351,261 -446,680 -366,1145 47,273 97,318 136,476 -30,-17 -108,-115 -136,-155 -132,-186 -215,-388 -237,-630 -23,-256 28,-517 117,-747 26,-68 68,-138 89,-196 -203,64 -438,390 -540,606zm631 3613c-40,-266 -159,-520 -343,-712 -20,-21 -41,-34 -56,-62 126,73 168,76 325,185 55,37 98,73 144,114 21,19 39,39 61,65 43,51 25,64 61,68 10,-20 -61,-209 -71,-246 -83,-286 -127,-591 -127,-894 -1,-289 -58,-576 -175,-832 -38,-83 -86,-153 -119,-225 49,26 115,83 157,117 99,84 190,183 277,286 234,277 364,581 432,979 -126,419 -319,809 -566,1157zm669 -1588c0,-2 0,-3 0,-4 -12,-495 -365,-786 -222,-1367 41,238 131,406 250,550 12,15 25,31 37,45 0,18 0,36 0,54 0,247 -22,488 -65,722zm-990 -3668c-754,-754 -1795,-1220 -2946,-1220 -1150,0 -2192,466 -2946,1220 -754,754 -1220,1796 -1220,2946 0,1151 466,2192 1220,2946 754,754 1796,1221 2946,1221 1151,0 2192,-467 2946,-1221 754,-754 1221,-1795 1221,-2946 0,-1150 -467,-2192 -1221,-2946z"/><path class="fil2" d="M4283 9382l1313 -1513c-6,-309 455,-693 537,-873 260,-624 155,-1336 91,-2080 32,-439 -510,-516 -561,-225 41,-340 -558,-392 -614,-150 -26,-365 -619,-322 -728,-52 11,-410 1,-975 11,-1400l489 0 0 -1551 -1534 0 -3238 3755c272,2178 2035,3892 4234,4089zm-489 -6481c99,-226 425,-253 516,0l325 0 0 -1175 -1162 0 0 1175 321 0zm260 -867c154,0 279,125 279,280 0,154 -125,279 -279,279 -154,0 -279,-125 -279,-279 0,-155 125,-280 279,-280z"/><path class="fil3" d="M4695 529c1151,0 2192,466 2946,1220 754,754 1221,1796 1221,2946 0,1151 -467,2192 -1221,2946 -754,754 -1795,1221 -2946,1221 -1150,0 -2192,-467 -2946,-1221 -754,-754 -1220,-1795 -1220,-2946 0,-1150 466,-2192 1220,-2946 754,-754 1796,-1220 2946,-1220zm4696 4166c0,-2593 -2103,-4695 -4696,-4695 -2593,0 -4695,2102 -4695,4695 0,2593 2102,4696 4695,4696 2593,0 4696,-2103 4696,-4696z"/><path class="fil1" d="M3286 1540l1533 0 0 1551 -489 0c-9,426 0,990 -11,1401 109,-271 703,-314 728,52 56,-243 655,-191 614,150 52,-291 594,-214 561,224 65,745 169,1457 -91,2080 -82,180 -543,564 -537,873 -712,12 -937,-17 -1649,-6 0,-132 -269,-317 -269,-450 -326,-252 -520,-561 -656,-895 -117,-600 117,-1148 35,-1773 29,-550 512,107 532,487 39,246 46,482 0,718 -2,114 214,155 204,-62l-26 -2799 -479 0 0 -1551zm507 1363c99,-225 424,-253 515,0l325 0 0 -1174 -1161 0 0 1174 321 0zm259 -866c155,0 280,125 280,279 0,154 -125,279 -280,279 -154,0 -279,-125 -279,-279 0,-154 125,-279 279,-279z"/></g></g></svg>