<?xml version="1.0" encoding="utf-8"?>
<!-- Generator: Adobe Illustrator 20.1.0, SVG Export Plug-In . SVG Version: 6.00 Build 0)  -->
<svg version="1.1" id="Layer_1" xmlns="http://www.w3.org/2000/svg" xmlns:xlink="http://www.w3.org/1999/xlink" x="0px" y="0px"
	 viewBox="0 0 512 512" style="enable-background:new 0 0 512 512;" xml:space="preserve">
<style type="text/css">
	.st0{fill:#231F20;}
</style>
<g>
	<path class="st0" d="M453.1,125.4h-63.9c-3.6,0-7-1.4-9.5-3.9l-44.2-44.3c-0.1-0.1-0.1-0.1-0.2-0.2l-0.1-0.1l0,0
		C328,69.7,318,65.3,307,65.3H206.9c-11.6,0-22,5-29.4,13l0-0.1l-43.2,43.3c-2.5,2.5-5.9,3.9-9.5,3.9H59.1
		c-29.5,0-53.5,24-53.5,53.5v213.6c0,29.5,24,53.5,53.5,53.5h393.9c29.6,0,53.5-24,53.5-53.5V178.9
		C506.6,149.4,482.6,125.4,453.1,125.4z M192.2,91.9c3.9-4.2,9.1-6.5,14.6-6.5H307c5.3,0,10.3,2.1,14.2,5.9l48.2,48.3l1.9,1.9
		c2.5,2.5,5.9,3.9,9.5,3.9h2.7h82.9c11,0,20,9,20,20v240.4h0c0,11-9,20-20,20H59.1c-18.4,0-33.5-15.1-33.5-33.5V178.9
		c0-18.5,15-33.5,33.5-33.5h71.1h2.7c3.6,0,7-1.4,9.5-3.9l1.9-1.9l24.3-24.3L192.2,91.9z"/>
	<path class="st0" d="M256.1,145.5c-71.9,0-130.2,58.3-130.2,130.2s58.3,130.3,130.2,130.3s130.2-58.3,130.2-130.3
		S328,145.5,256.1,145.5z M256.1,385.9c-60.8,0-110.2-49.4-110.2-110.2c0-60.8,49.4-110.2,110.2-110.2s110.2,49.4,110.2,110.2
		C366.3,336.4,316.9,385.9,256.1,385.9z"/>
	<path class="st0" d="M256.1,185.5c-49.8,0-90.2,40.3-90.2,90.1s40.4,90.2,90.2,90.2s90.2-40.4,90.2-90.2S305.9,185.5,256.1,185.5z
		 M256.1,345.8c-38.7,0-70.1-31.5-70.1-70.1s31.5-70.1,70.1-70.1s70.1,31.4,70.1,70.1S294.8,345.8,256.1,345.8z"/>
</g>
</svg>
