<?xml version="1.0" encoding="utf-8"?>
<!-- Generator: Adobe Illustrator 19.2.1, SVG Export Plug-In . SVG Version: 6.00 Build 0)  -->
<svg version="1.1" id="Layer_1" xmlns="http://www.w3.org/2000/svg" xmlns:xlink="http://www.w3.org/1999/xlink" x="0px" y="0px"
	 width="49px" height="64px" viewBox="0 0 49 64" style="enable-background:new 0 0 49 64;" xml:space="preserve">
<style type="text/css">
	.st0{fill:#067FCB;}
	.st1{fill:#7CC9F9;}
	.st2{enable-background:new    ;}
	.st3{fill:#FFFFFF;}
</style>
<g>
	<path class="st0" d="M49,16.8v42.1c0,2.8-2.3,5.1-5.1,5.1H5.1C2.3,64,0,61.7,0,58.9V5.1C0,2.3,2.3,0,5.1,0h27L49,16.8z"/>
	<path class="st1" d="M49,15.9V18H35.2c-2.9,0-4.2-2.3-4.2-5.2V0h2.1L49,15.9z"/>
</g>
<g class="st2">
	<path class="st3" d="M18.7,46.1c0,0.5-0.1,1-0.4,1.3c-0.3,0.3-0.7,0.5-1.1,0.5c-0.4,0-0.8-0.1-1-0.3c-0.3-0.2-0.4-0.6-0.5-1
		c-0.3,0.5-0.7,0.8-1.3,1.1c-0.5,0.2-1.1,0.4-1.6,0.4c-0.8,0-1.5-0.2-2.2-0.5c-0.6-0.3-1.2-0.8-1.6-1.4c-0.5-0.6-0.8-1.2-1-1.9
		c-0.2-0.7-0.4-1.4-0.4-2.2c0-0.8,0.1-1.5,0.3-2.3c0.2-0.7,0.5-1.4,1-2c0.4-0.6,1-1.1,1.6-1.4c0.6-0.4,1.4-0.5,2.2-0.5
		c0.6,0,1.1,0.1,1.6,0.3c0.5,0.2,1,0.5,1.4,0.8v-4.3c0-0.5,0.1-1,0.4-1.3c0.3-0.3,0.7-0.5,1.1-0.5c0.5,0,0.9,0.2,1.1,0.5
		c0.3,0.3,0.4,0.7,0.4,1.3V46.1z M15.5,41.8c0-0.4-0.1-0.8-0.2-1.1s-0.3-0.7-0.5-1c-0.2-0.3-0.5-0.5-0.8-0.7s-0.7-0.3-1.1-0.3
		c-0.4,0-0.8,0.1-1.1,0.3c-0.3,0.2-0.6,0.5-0.8,0.8c-0.2,0.3-0.4,0.7-0.5,1c-0.1,0.4-0.2,0.8-0.2,1.1c0,0.4,0.1,0.7,0.2,1.1
		c0.1,0.4,0.3,0.7,0.5,1c0.2,0.3,0.5,0.6,0.8,0.7c0.3,0.2,0.7,0.3,1.1,0.3c0.4,0,0.8-0.1,1.1-0.3c0.3-0.2,0.6-0.5,0.8-0.8
		s0.4-0.7,0.5-1.1C15.5,42.5,15.5,42.2,15.5,41.8z"/>
	<path class="st3" d="M25.7,35.7c0.8,0,1.6,0.2,2.3,0.5c0.7,0.3,1.3,0.8,1.8,1.4c0.5,0.6,0.9,1.2,1.2,2c0.3,0.7,0.4,1.5,0.4,2.3
		c0,0.8-0.1,1.6-0.4,2.3c-0.3,0.7-0.7,1.4-1.2,1.9c-0.5,0.6-1.1,1-1.8,1.3c-0.7,0.3-1.5,0.5-2.3,0.5c-0.9,0-1.6-0.2-2.3-0.5
		c-0.7-0.3-1.3-0.8-1.8-1.3s-0.9-1.2-1.2-1.9c-0.3-0.7-0.4-1.5-0.4-2.3c0-0.8,0.1-1.6,0.4-2.3c0.3-0.7,0.7-1.4,1.2-2
		c0.5-0.6,1.1-1,1.8-1.4C24.1,35.9,24.9,35.7,25.7,35.7z M25.7,38.7c-0.4,0-0.8,0.1-1.1,0.3c-0.3,0.2-0.6,0.5-0.8,0.8
		c-0.2,0.3-0.4,0.7-0.5,1c-0.1,0.4-0.1,0.8-0.1,1.1c0,0.4,0.1,0.8,0.2,1.1c0.1,0.4,0.3,0.7,0.5,1c0.2,0.3,0.5,0.5,0.8,0.7
		s0.7,0.3,1.1,0.3c0.4,0,0.8-0.1,1.1-0.3c0.3-0.2,0.6-0.4,0.8-0.7c0.2-0.3,0.4-0.6,0.5-1c0.1-0.4,0.2-0.8,0.2-1.1
		c0-0.4,0-0.8-0.1-1.1c-0.1-0.4-0.2-0.7-0.5-1c-0.2-0.3-0.5-0.6-0.8-0.8C26.5,38.8,26.2,38.7,25.7,38.7z"/>
	<path class="st3" d="M41.8,37.7c0,0.2,0,0.3-0.1,0.5c-0.1,0.2-0.1,0.3-0.2,0.5c-0.1,0.1-0.2,0.3-0.4,0.4c-0.1,0.1-0.3,0.1-0.5,0.1
		s-0.4,0-0.6-0.1c-0.2-0.1-0.4-0.1-0.6-0.2s-0.4-0.1-0.6-0.2c-0.2-0.1-0.5-0.1-0.7-0.1c-0.5,0-0.8,0.1-1.2,0.3s-0.6,0.4-0.8,0.7
		c-0.2,0.3-0.4,0.6-0.5,1c-0.1,0.4-0.2,0.8-0.2,1.2c0,0.4,0.1,0.8,0.2,1.2c0.1,0.4,0.3,0.7,0.5,1s0.5,0.5,0.8,0.7s0.7,0.3,1.1,0.3
		c0.2,0,0.4,0,0.7-0.1c0.2-0.1,0.5-0.1,0.7-0.2c0.2-0.1,0.4-0.2,0.6-0.2c0.2-0.1,0.3-0.1,0.4-0.1c0.4,0,0.7,0.1,1,0.4s0.4,0.6,0.4,1
		c0,0.4-0.1,0.8-0.4,1c-0.3,0.3-0.6,0.5-1.1,0.7c-0.4,0.2-0.8,0.3-1.3,0.4C38.6,47.9,38.2,48,38,48c-0.9,0-1.6-0.2-2.3-0.5
		c-0.7-0.3-1.3-0.8-1.8-1.3c-0.5-0.6-0.9-1.2-1.2-1.9c-0.3-0.7-0.4-1.5-0.4-2.3c0-0.8,0.1-1.6,0.4-2.3c0.3-0.7,0.7-1.4,1.2-2
		c0.5-0.6,1.1-1,1.8-1.4c0.7-0.3,1.5-0.5,2.3-0.5c0.3,0,0.7,0,1.1,0.1c0.4,0.1,0.9,0.2,1.3,0.3s0.7,0.4,1,0.6S41.8,37.4,41.8,37.7z"
		/>
</g>
</svg>
