<?xml version="1.0" encoding="utf-8"?>
<!-- Generator: Adobe Illustrator 19.2.1, SVG Export Plug-In . SVG Version: 6.00 Build 0)  -->
<svg version="1.1" id="Layer_1" xmlns="http://www.w3.org/2000/svg" xmlns:xlink="http://www.w3.org/1999/xlink" x="0px" y="0px"
	 width="49px" height="64px" viewBox="0 0 49 64" style="enable-background:new 0 0 49 64;" xml:space="preserve">
<style type="text/css">
	.st0{fill:#F2F2F2;}
	.st1{fill:#D1D1D1;}
</style>
<g>
	<path class="st0" d="M32.1,0h-27C2.3,0,0,2.3,0,5.1v53.8C0,61.7,2.3,64,5.1,64h38.8c2.8,0,5.1-2.3,5.1-5.1V16.8L32.1,0z M18.7,46.1
		c0,0.5-0.1,1-0.4,1.3c-0.3,0.3-0.7,0.5-1.1,0.5c-0.4,0-0.8-0.1-1-0.3c-0.3-0.2-0.4-0.6-0.5-1c-0.3,0.5-0.7,0.8-1.3,1.1
		c-0.5,0.2-1.1,0.4-1.6,0.4c-0.8,0-1.5-0.2-2.2-0.5c-0.6-0.3-1.2-0.8-1.6-1.4c-0.5-0.6-0.8-1.2-1-1.9c-0.2-0.7-0.4-1.4-0.4-2.2
		c0-0.8,0.1-1.5,0.3-2.3c0.2-0.7,0.5-1.4,1-2c0.4-0.6,1-1.1,1.6-1.4c0.6-0.4,1.4-0.5,2.2-0.5c0.6,0,1.1,0.1,1.6,0.3
		c0.5,0.2,1,0.5,1.4,0.8v-4.3c0-0.5,0.1-1,0.4-1.3c0.3-0.3,0.7-0.5,1.1-0.5c0.5,0,0.9,0.2,1.1,0.5c0.3,0.3,0.4,0.7,0.4,1.3V46.1z
		 M31,44.2c-0.3,0.7-0.7,1.4-1.2,1.9c-0.5,0.6-1.1,1-1.8,1.3c-0.7,0.3-1.5,0.5-2.3,0.5s-1.6-0.2-2.3-0.5c-0.7-0.3-1.3-0.8-1.8-1.3
		s-0.9-1.2-1.2-1.9c-0.3-0.7-0.4-1.5-0.4-2.3c0-0.8,0.1-1.6,0.4-2.3c0.3-0.7,0.7-1.4,1.2-2c0.5-0.6,1.1-1,1.8-1.4
		c0.7-0.3,1.5-0.5,2.3-0.5s1.6,0.2,2.3,0.5c0.7,0.3,1.3,0.8,1.8,1.4c0.5,0.6,0.9,1.2,1.2,2c0.3,0.7,0.4,1.5,0.4,2.3
		C31.4,42.7,31.3,43.5,31,44.2z M35.6,43.1c0.1,0.4,0.3,0.7,0.5,1s0.5,0.5,0.8,0.7s0.7,0.3,1.1,0.3c0.2,0,0.4,0,0.7-0.1
		c0.2-0.1,0.5-0.1,0.7-0.2c0.2-0.1,0.4-0.2,0.6-0.2c0.2-0.1,0.3-0.1,0.4-0.1c0.4,0,0.7,0.1,1,0.4s0.4,0.6,0.4,1c0,0.4-0.1,0.8-0.4,1
		c-0.3,0.3-0.6,0.5-1.1,0.7c-0.4,0.2-0.8,0.3-1.3,0.4C38.6,47.9,38.2,48,38,48c-0.9,0-1.6-0.2-2.3-0.5c-0.7-0.3-1.3-0.8-1.8-1.3
		c-0.5-0.6-0.9-1.2-1.2-1.9c-0.3-0.7-0.4-1.5-0.4-2.3c0-0.8,0.1-1.6,0.4-2.3c0.3-0.7,0.7-1.4,1.2-2c0.5-0.6,1.1-1,1.8-1.4
		c0.7-0.3,1.5-0.5,2.3-0.5c0.3,0,0.7,0,1.1,0.1c0.4,0.1,0.9,0.2,1.3,0.3s0.7,0.4,1,0.6s0.4,0.6,0.4,1c0,0.2,0,0.3-0.1,0.5
		c-0.1,0.2-0.1,0.3-0.2,0.5c-0.1,0.1-0.2,0.3-0.4,0.4c-0.1,0.1-0.3,0.1-0.5,0.1s-0.4,0-0.6-0.1c-0.2-0.1-0.4-0.1-0.6-0.2
		s-0.4-0.1-0.6-0.2c-0.2-0.1-0.5-0.1-0.7-0.1c-0.5,0-0.8,0.1-1.2,0.3s-0.6,0.4-0.8,0.7c-0.2,0.3-0.4,0.6-0.5,1
		c-0.1,0.4-0.2,0.8-0.2,1.2C35.4,42.3,35.5,42.7,35.6,43.1z"/>
	<path class="st0" d="M27.6,39.7c-0.2-0.3-0.5-0.6-0.8-0.8c-0.3-0.2-0.7-0.3-1.1-0.3s-0.8,0.1-1.1,0.3c-0.3,0.2-0.6,0.5-0.8,0.8
		c-0.2,0.3-0.4,0.7-0.5,1c-0.1,0.4-0.1,0.8-0.1,1.1c0,0.4,0.1,0.8,0.2,1.1c0.1,0.4,0.3,0.7,0.5,1c0.2,0.3,0.5,0.5,0.8,0.7
		s0.7,0.3,1.1,0.3c0.4,0,0.8-0.1,1.1-0.3c0.3-0.2,0.6-0.4,0.8-0.7c0.2-0.3,0.4-0.6,0.5-1c0.1-0.4,0.2-0.8,0.2-1.1
		c0-0.4,0-0.8-0.1-1.1C28,40.4,27.8,40,27.6,39.7z"/>
	<path class="st0" d="M14.9,39.6c-0.2-0.3-0.5-0.5-0.8-0.7s-0.7-0.3-1.1-0.3c-0.4,0-0.8,0.1-1.1,0.3c-0.3,0.2-0.6,0.5-0.8,0.8
		c-0.2,0.3-0.4,0.7-0.5,1c-0.1,0.4-0.2,0.8-0.2,1.1c0,0.4,0.1,0.7,0.2,1.1c0.1,0.4,0.3,0.7,0.5,1c0.2,0.3,0.5,0.6,0.8,0.7
		c0.3,0.2,0.7,0.3,1.1,0.3c0.4,0,0.8-0.1,1.1-0.3c0.3-0.2,0.6-0.5,0.8-0.8s0.4-0.7,0.5-1.1c0.1-0.4,0.1-0.8,0.1-1.2
		c0-0.4-0.1-0.8-0.2-1.1S15.1,39.9,14.9,39.6z"/>
</g>
<path class="st1" d="M49,15.9V18H35.2c-2.9,0-4.2-2.3-4.2-5.2V0h2.1L49,15.9z"/>
</svg>
