<svg id="Isolation_Mode" data-name="Isolation Mode" xmlns="http://www.w3.org/2000/svg" viewBox="0 0 223.76 321.87"><defs><style>.cls-1{fill:#231f20;}.cls-2{fill:#fff;}</style></defs><title>icon-pdf</title><rect class="cls-1" x="49.37" y="117.98" width="174.38" height="82.11" rx="3.62" ry="3.62"/><path class="cls-1" d="M117.6,321.87a9.57,9.57,0,0,1-7.68-3.81L69.34,264.88A9.66,9.66,0,0,1,77,249.36H88.47V217.49A9.53,9.53,0,0,1,98,208h39.17a9.53,9.53,0,0,1,9.54,9.49v31.87h11.45a9.66,9.66,0,0,1,7.68,15.51l-40.58,53.19A9.6,9.6,0,0,1,117.6,321.87ZM80.46,260.72L117.6,309.4l37.14-48.68H141a5.68,5.68,0,0,1-5.68-5.68V219.35H99.83V255a5.68,5.68,0,0,1-5.68,5.68H80.46Z" transform="translate(-13.12)"/><path class="cls-1" d="M217.17,0H68.3a4.9,4.9,0,0,0-3.47,1.44L14.56,51.71a4.91,4.91,0,0,0-1.44,3.47V281.8A4.91,4.91,0,0,0,18,286.7H74.15A2.33,2.33,0,0,0,76,283l-8.83-11.58a2.33,2.33,0,0,0-1.85-.92h-36V62H69.28a5.8,5.8,0,0,0,5.8-5.8V16.23H205.85v90a3.62,3.62,0,0,0,3.62,3.62h9a3.62,3.62,0,0,0,3.62-3.62V4.91A4.91,4.91,0,0,0,217.17,0Z" transform="translate(-13.12)"/><path class="cls-1" d="M218.45,208.21h-9a3.62,3.62,0,0,0-3.62,3.62v58.64h-36a2.33,2.33,0,0,0-1.85.92L159.2,283A2.33,2.33,0,0,0,161,286.7h56.12a4.91,4.91,0,0,0,4.91-4.91v-70A3.62,3.62,0,0,0,218.45,208.21Z" transform="translate(-13.12)"/><path class="cls-2" d="M83.53,138.94a5.43,5.43,0,0,1,1.37-3.86,5.16,5.16,0,0,1,4-1.47H101a20.4,20.4,0,0,1,7,1.16,16.12,16.12,0,0,1,5.54,3.31,15.51,15.51,0,0,1,3.66,5.15,16.29,16.29,0,0,1,1.33,6.69,15.88,15.88,0,0,1-1.37,6.72,15.64,15.64,0,0,1-3.7,5.08A16.18,16.18,0,0,1,108,165a19.29,19.29,0,0,1-6.6,1.13h-7.6v11.19a5.13,5.13,0,1,1-10.24,0V138.94Zm10.24,18.15h7a6.63,6.63,0,0,0,5.18-2.08,8,8,0,0,0,0-10.31,6.64,6.64,0,0,0-5.18-2.08h-7v14.47Z" transform="translate(-13.12)"/><path class="cls-2" d="M121.47,138.87a5.1,5.1,0,0,1,1.47-3.82,5.19,5.19,0,0,1,3.79-1.43h11.33a27.5,27.5,0,0,1,10.2,1.77,20.58,20.58,0,0,1,7.54,5.05,21.88,21.88,0,0,1,4.68,7.88,31.12,31.12,0,0,1,1.6,10.27,27.11,27.11,0,0,1-1.67,9.76,20.55,20.55,0,0,1-12.11,12.18,26.16,26.16,0,0,1-9.56,1.67H126.87a7.35,7.35,0,0,1-1.77-.24,4.94,4.94,0,0,1-1.77-.85,4.62,4.62,0,0,1-1.33-1.6,5.23,5.23,0,0,1-.51-2.42V138.87Zm10.24,33.92h6.89a13.4,13.4,0,0,0,5.7-1.13,11,11,0,0,0,4-3.14,13.15,13.15,0,0,0,2.35-4.68,21.06,21.06,0,0,0,.75-5.73,22.08,22.08,0,0,0-.79-6,13.17,13.17,0,0,0-2.42-4.78,11,11,0,0,0-4.2-3.14,15.1,15.1,0,0,0-6.11-1.13h-6.21v29.76Z" transform="translate(-13.12)"/><path class="cls-2" d="M167,138.94a5.57,5.57,0,0,1,1.36-3.72,4.91,4.91,0,0,1,4-1.6h17.47a4.09,4.09,0,0,1,3.41,1.47,5.11,5.11,0,0,1,1.16,3.24,5.2,5.2,0,0,1-1.13,3.24,4.07,4.07,0,0,1-3.45,1.47H177.23v10h10.58a4.59,4.59,0,0,1,3.69,1.43,4.81,4.81,0,0,1,1.23,3.21,5.06,5.06,0,0,1-1.23,3.28,4.48,4.48,0,0,1-3.69,1.5H177.23v14.88a5.13,5.13,0,1,1-10.24,0V138.94Z" transform="translate(-13.12)"/></svg>