<?xml version="1.0" encoding="utf-8"?>
<!-- Generator: Adobe Illustrator 19.2.1, SVG Export Plug-In . SVG Version: 6.00 Build 0)  -->
<svg version="1.1" id="Layer_1" xmlns="http://www.w3.org/2000/svg" xmlns:xlink="http://www.w3.org/1999/xlink" x="0px" y="0px"
	 width="32px" height="32px" viewBox="0 0 32 32" style="enable-background:new 0 0 32 32;" xml:space="preserve">
<style type="text/css">
	.st0{fill:#111111;}
	.st1{fill:#F4B300;}
</style>
<g>
	<circle class="st0" cx="16" cy="16" r="16"/>
	<path class="st1" d="M24.7,22.2c0,2.1-5.4,3.1-8.6,3.1s-8.6-1-8.6-3.1c0-0.3,0.1-0.6,0.4-0.9c2.9-6,2.2-8.8,3.8-11.1
		c0.7-1,1.6-1.6,2.9-1.9c0.1-0.8,0.7-1.4,1.5-1.4c0.8,0,1.5,0.6,1.5,1.4c1.4,0.3,2.2,0.9,2.9,1.9c1.6,2.2,0.8,5.1,3.8,11.1
		C24.5,21.5,24.7,21.8,24.7,22.2L24.7,22.2z M22.9,21.6c-1.2-1.5-4.5-1.8-6.8-1.8c-2.4,0-5.6,0.3-6.8,1.8c1.2,1.5,4.5,1.8,6.8,1.8
		C18.5,23.4,21.7,23.1,22.9,21.6L22.9,21.6z M14.7,20.8c0-0.2,0.9-0.2,1.4-0.2c1.1,0,1.4,0.1,1.4,0.2c0,0.8-0.6,1.5-1.4,1.5
		C15.3,22.4,14.7,21.7,14.7,20.8L14.7,20.8z"/>
</g>
</svg>
