<?xml version="1.0" encoding="utf-8"?>
<!-- Generator: Adobe Illustrator 19.2.1, SVG Export Plug-In . SVG Version: 6.00 Build 0)  -->
<svg version="1.1" id="Layer_1" xmlns="http://www.w3.org/2000/svg" xmlns:xlink="http://www.w3.org/1999/xlink" x="0px" y="0px"
	 width="128px" height="128px" viewBox="0 0 128 128" style="enable-background:new 0 0 128 128;" xml:space="preserve">
<style type="text/css">
	.st0{fill:#FFFFFF;}
	.st1{fill:#231F20;}
</style>
<g>
	<path class="st0" d="M104.9,79.7H41.8c-0.8,0-1.4-0.6-1.4-1.4V50.1c0-0.8,0.6-1.4,1.4-1.4H105c0.8,0,1.4,0.6,1.4,1.4v28.3
		C106.3,79.1,105.7,79.7,104.9,79.7z"/>
	<path class="st0" d="M61.2,125.7c-1.2,0-2.2-0.5-2.9-1.4L43,104.2c-0.8-1.1-1-2.6-0.4-3.8c0.6-1.3,1.9-2,3.3-2h4.3v-12
		c0-2,1.6-3.6,3.6-3.6h14.8c2,0,3.6,1.6,3.6,3.6v12h4.3c1.4,0,2.7,0.8,3.3,2c0.6,1.2,0.5,2.7-0.4,3.8l-15.3,20.1
		C63.4,125.2,62.3,125.7,61.2,125.7z M47.2,102.6l14,18.4l14-18.4H70c-1.2,0-2.1-1-2.1-2.1V87H54.5v13.5c0,1.2-1,2.1-2.1,2.1H47.2z"
		/>
	<g>
		<path class="st0" d="M98.8,4.1H42.6c-0.5,0-1,0.2-1.3,0.5l-19,19c-0.3,0.3-0.5,0.8-0.5,1.3v85.6c0,1,0.8,1.9,1.9,1.9h21.2
			c0.7,0,1.1-0.8,0.7-1.4l-3.3-4.4c-0.2-0.2-0.4-0.3-0.7-0.3H27.9V27.5H43c1.2,0,2.2-1,2.2-2.2v-15h49.4v34c0,0.8,0.6,1.4,1.4,1.4
			h3.4c0.8,0,1.4-0.6,1.4-1.4V6C100.7,5,99.8,4.1,98.8,4.1z"/>
		<path class="st0" d="M99.3,82.8h-3.4c-0.8,0-1.4,0.6-1.4,1.4v22.2H81c-0.3,0-0.5,0.1-0.7,0.3l-3.3,4.4c-0.4,0.6,0,1.4,0.7,1.4
			h21.2c1,0,1.9-0.8,1.9-1.9V84.2C100.7,83.4,100.1,82.8,99.3,82.8z"/>
	</g>
</g>
<g>
	<path class="st1" d="M48.3,56.6c0-0.6,0.2-1.1,0.5-1.5s0.8-0.6,1.5-0.6h4.6c0.9,0,1.8,0.1,2.6,0.4c0.8,0.3,1.5,0.7,2.1,1.3
		c0.6,0.5,1,1.2,1.4,1.9c0.3,0.8,0.5,1.6,0.5,2.5s-0.2,1.8-0.5,2.5s-0.8,1.4-1.4,1.9c-0.6,0.5-1.3,0.9-2.1,1.2
		c-0.8,0.3-1.6,0.4-2.5,0.4h-2.9v4.2c0,0.7-0.2,1.2-0.6,1.5c-0.4,0.3-0.8,0.5-1.4,0.5c-0.6,0-1-0.2-1.4-0.5s-0.6-0.8-0.6-1.5V56.6
		H48.3z M52.2,63.5h2.6c0.8,0,1.5-0.3,2-0.8s0.7-1.2,0.7-1.9s-0.2-1.4-0.7-1.9s-1.1-0.8-2-0.8h-2.6V63.5z"/>
	<path class="st1" d="M62.7,56.6c0-0.6,0.2-1.1,0.6-1.4c0.4-0.4,0.8-0.5,1.4-0.5H69c1.4,0,2.7,0.2,3.9,0.7c1.1,0.4,2.1,1.1,2.8,1.9
		c0.8,0.8,1.4,1.8,1.8,3s0.6,2.5,0.6,3.9c0,1.4-0.2,2.6-0.6,3.7s-1,2-1.8,2.8s-1.7,1.4-2.8,1.8c-1.1,0.4-2.3,0.6-3.6,0.6h-4.5
		c-0.2,0-0.4,0-0.7-0.1c-0.2-0.1-0.5-0.2-0.7-0.3c-0.2-0.2-0.4-0.4-0.5-0.6s-0.2-0.6-0.2-0.9C62.7,71.2,62.7,56.6,62.7,56.6z
		 M66.5,69.4h2.6c0.8,0,1.5-0.1,2.2-0.4c0.6-0.3,1.1-0.7,1.5-1.2s0.7-1.1,0.9-1.8c0.2-0.7,0.3-1.4,0.3-2.2s-0.1-1.6-0.3-2.3
		c-0.2-0.7-0.5-1.3-0.9-1.8s-0.9-0.9-1.6-1.2c-0.6-0.3-1.4-0.4-2.3-0.4h-2.3L66.5,69.4L66.5,69.4z"/>
	<path class="st1" d="M79.9,56.6c0-0.5,0.2-1,0.5-1.4s0.8-0.6,1.5-0.6h6.6c0.6,0,1,0.2,1.3,0.6c0.3,0.4,0.4,0.8,0.4,1.2
		s-0.1,0.9-0.4,1.2c-0.3,0.4-0.7,0.6-1.3,0.6h-4.7V62h4c0.6,0,1.1,0.2,1.4,0.5c0.3,0.4,0.5,0.8,0.5,1.2s-0.2,0.9-0.5,1.2
		c-0.3,0.4-0.8,0.6-1.4,0.6h-4v5.6c0,0.7-0.2,1.2-0.6,1.5s-0.8,0.5-1.4,0.5s-1-0.2-1.4-0.5s-0.6-0.8-0.6-1.5L79.9,56.6L79.9,56.6z"
		/>
</g>
</svg>
