<?xml version="1.0" encoding="utf-8"?>
<!-- Generator: Adobe Illustrator 19.2.1, SVG Export Plug-In . SVG Version: 6.00 Build 0)  -->
<svg version="1.1" id="Layer_1" xmlns="http://www.w3.org/2000/svg" xmlns:xlink="http://www.w3.org/1999/xlink" x="0px" y="0px"
	 width="49px" height="64px" viewBox="0 0 49 64" style="enable-background:new 0 0 49 64;" xml:space="preserve">
<style type="text/css">
	.st0{fill:#F2F2F2;}
	.st1{fill:#D1D1D1;}
</style>
<g>
	<path class="st0" d="M28.8,39.6c-0.2-0.3-0.5-0.5-0.8-0.7c-0.3-0.2-0.7-0.3-1.1-0.3c-0.4,0-0.8,0.1-1.1,0.3
		c-0.3,0.2-0.6,0.5-0.8,0.8c-0.2,0.3-0.4,0.7-0.5,1c-0.1,0.4-0.2,0.8-0.2,1.1c0,0.4,0.1,0.7,0.2,1.1c0.1,0.4,0.3,0.7,0.5,1
		c0.2,0.3,0.5,0.6,0.8,0.7c0.3,0.2,0.7,0.3,1.1,0.3c0.4,0,0.8-0.1,1.1-0.3c0.3-0.2,0.6-0.5,0.8-0.8c0.2-0.3,0.4-0.7,0.5-1.1
		c0.1-0.4,0.1-0.8,0.1-1.2c0-0.4-0.1-0.8-0.2-1.1S29,39.9,28.8,39.6z"/>
	<path class="st0" d="M32.1,0h-27C2.3,0,0,2.3,0,5.1v53.8C0,61.7,2.3,64,5.1,64h38.8c2.8,0,5.1-2.3,5.1-5.1V16.8L32.1,0z M20.1,44.2
		c-0.2,0.7-0.6,1.3-1,1.9s-1,1-1.6,1.4C16.7,47.8,16,48,15.2,48c-0.5,0-1-0.1-1.5-0.3c-0.5-0.2-1-0.5-1.4-0.8v3.9
		c0,0.5-0.1,1-0.4,1.3c-0.3,0.3-0.7,0.5-1.1,0.5S9.9,52.3,9.6,52c-0.3-0.3-0.4-0.7-0.4-1.3V37.6c0-0.5,0.1-1,0.4-1.3
		c0.3-0.3,0.7-0.5,1.1-0.5c0.4,0,0.8,0.1,1,0.3c0.3,0.2,0.4,0.6,0.5,1c0.3-0.5,0.7-0.8,1.3-1.1c0.6-0.2,1.1-0.4,1.7-0.4
		c0.9,0,1.6,0.2,2.2,0.5c0.6,0.4,1.2,0.8,1.6,1.4c0.4,0.6,0.7,1.3,1,2c0.2,0.7,0.3,1.5,0.3,2.3C20.4,42.8,20.3,43.5,20.1,44.2z
		 M32.6,46.1c0,0.5-0.1,1-0.4,1.3c-0.3,0.3-0.7,0.5-1.1,0.5c-0.4,0-0.8-0.1-1-0.3s-0.4-0.6-0.5-1c-0.3,0.5-0.7,0.8-1.3,1.1
		c-0.5,0.2-1.1,0.4-1.6,0.4c-0.8,0-1.5-0.2-2.2-0.5c-0.6-0.3-1.2-0.8-1.6-1.4c-0.5-0.6-0.8-1.2-1-1.9c-0.2-0.7-0.4-1.4-0.4-2.2
		c0-0.8,0.1-1.5,0.3-2.3c0.2-0.7,0.5-1.4,1-2c0.4-0.6,1-1.1,1.6-1.4c0.6-0.4,1.4-0.5,2.2-0.5c0.6,0,1.1,0.1,1.6,0.3
		c0.5,0.2,1,0.5,1.4,0.8v-4.3c0-0.5,0.1-1,0.4-1.3c0.3-0.3,0.7-0.5,1.1-0.5s0.9,0.2,1.1,0.5c0.3,0.3,0.4,0.7,0.4,1.3V46.1z
		 M40.4,38.5c-0.3,0.2-0.7,0.3-1.2,0.3h-1v7.3c0,0.5-0.1,1-0.4,1.3c-0.3,0.3-0.7,0.5-1.1,0.5c-0.5,0-0.9-0.2-1.1-0.5
		c-0.3-0.3-0.4-0.7-0.4-1.3v-7.3h-0.7c-0.4,0-0.8-0.1-1-0.4c-0.2-0.2-0.4-0.6-0.4-1c0-0.4,0.1-0.7,0.4-1c0.3-0.3,0.6-0.4,1-0.4h0.7
		v-1.6c0-1.2,0.3-2.1,0.9-2.7c0.6-0.6,1.4-0.9,2.4-0.9c0.3,0,0.5,0,0.8,0.1c0.3,0,0.5,0.1,0.7,0.2c0.2,0.1,0.4,0.3,0.5,0.4
		c0.1,0.2,0.2,0.4,0.2,0.7c0,0.9-0.4,1.3-1.3,1.3c-0.1,0-0.3,0-0.4,0c-0.1,0-0.2,0.1-0.3,0.1s-0.2,0.2-0.2,0.3s-0.1,0.4-0.1,0.7V36
		h1c0.5,0,0.9,0.1,1.2,0.3c0.3,0.2,0.5,0.6,0.5,1.1C40.9,37.9,40.7,38.3,40.4,38.5z"/>
	<path class="st0" d="M16.6,39.7c-0.2-0.3-0.5-0.6-0.8-0.8c-0.3-0.2-0.7-0.3-1.1-0.3c-0.4,0-0.8,0.1-1.1,0.3s-0.6,0.4-0.8,0.7
		c-0.2,0.3-0.4,0.6-0.5,1c-0.1,0.4-0.2,0.8-0.2,1.1c0,0.4,0,0.8,0.1,1.2c0.1,0.4,0.2,0.8,0.5,1.1c0.2,0.3,0.5,0.6,0.8,0.8
		c0.3,0.2,0.7,0.3,1.1,0.3c0.4,0,0.8-0.1,1.1-0.3c0.3-0.2,0.6-0.4,0.8-0.7c0.2-0.3,0.4-0.7,0.5-1c0.1-0.4,0.2-0.8,0.2-1.1
		c0-0.4-0.1-0.8-0.2-1.1C17,40.4,16.9,40,16.6,39.7z"/>
</g>
<path class="st1" d="M49,15.9V18H35.2c-2.9,0-4.2-2.3-4.2-5.2V0h2.1L49,15.9z"/>
</svg>
