<?xml version="1.0" encoding="utf-8"?>
<!-- Generator: Adobe Illustrator 19.2.1, SVG Export Plug-In . SVG Version: 6.00 Build 0)  -->
<svg version="1.1" id="Layer_1" xmlns="http://www.w3.org/2000/svg" xmlns:xlink="http://www.w3.org/1999/xlink" x="0px" y="0px"
	 width="128px" height="128px" viewBox="0 0 128 128" style="enable-background:new 0 0 128 128;" xml:space="preserve">
<style type="text/css">
	.st0{fill:#546E7A;}
	.st1{fill:#FFA000;}
	.st2{fill:#B0BEC5;}
</style>
<g>
	<g>
		<path class="st0" d="M104.9,28.9H23.1c-3.2,0-5.8,2.6-5.8,5.8v58.5c0,3.2,2.6,5.8,5.8,5.8h81.9c3.2,0,5.8-2.6,5.8-5.8V34.8
			C110.8,31.5,108.2,28.9,104.9,28.9z M104.9,93.2H23.1V34.8h81.9V93.2z"/>
	</g>
</g>
<path class="st1" d="M40.6,46.5c3.2,0,5.8,2.6,5.8,5.8s-2.6,5.8-5.8,5.8s-5.8-2.6-5.8-5.8S37.4,46.5,40.6,46.5 M40.6,40.6
	c-6.5,0-11.7,5.2-11.7,11.7S34.2,64,40.6,64s11.7-5.2,11.7-11.7S47.1,40.6,40.6,40.6L40.6,40.6z"/>
<path class="st2" d="M37.7,87.4c-0.7,0-1.5-0.3-2.1-0.9c-1.1-1.1-1.1-3,0-4.1l17.5-17.5c0.9-0.9,2.3-1.1,3.4-0.5l9.5,4.8l16.1-21.4
	c0.6-0.8,1.5-1.2,2.4-1.2c1,0,1.8,0.5,2.4,1.3l11.7,17.5c0.9,1.3,0.5,3.2-0.8,4.1c-1.3,0.9-3.2,0.5-4.1-0.8l-9.4-14.1L69.3,74.5
	c-0.8,1.1-2.4,1.5-3.6,0.9l-9.8-4.9L39.8,86.5C39.2,87.1,38.4,87.4,37.7,87.4z"/>
</svg>
