<?xml version="1.0" encoding="utf-8"?>
<!-- Generator: Adobe Illustrator 19.2.1, SVG Export Plug-In . SVG Version: 6.00 Build 0)  -->
<svg version="1.1" id="Layer_1" xmlns="http://www.w3.org/2000/svg" xmlns:xlink="http://www.w3.org/1999/xlink" x="0px" y="0px"
	 width="49px" height="64px" viewBox="0 0 49 64" style="enable-background:new 0 0 49 64;" xml:space="preserve">
<style type="text/css">
	.st0{fill:#F2F2F2;}
	.st1{fill:#D2D2D2;}
</style>
<g>
	<path class="st0" d="M29.3,39.7c-0.2-0.3-0.5-0.6-0.8-0.8c-0.3-0.2-0.7-0.3-1.1-0.3c-0.4,0-0.8,0.1-1.1,0.3
		c-0.3,0.2-0.6,0.4-0.8,0.7c-0.2,0.3-0.4,0.6-0.5,1s-0.2,0.8-0.2,1.1c0,0.4,0,0.8,0.1,1.2c0.1,0.4,0.2,0.8,0.5,1.1
		c0.2,0.3,0.5,0.6,0.8,0.8c0.3,0.2,0.7,0.3,1.1,0.3c0.4,0,0.8-0.1,1.1-0.3s0.6-0.4,0.8-0.7c0.2-0.3,0.4-0.7,0.5-1
		c0.1-0.4,0.2-0.8,0.2-1.1c0-0.4-0.1-0.8-0.2-1.1C29.6,40.4,29.5,40,29.3,39.7z"/>
	<path class="st0" d="M32.1,0h-27C2.3,0,0,2.3,0,5V59c0,2.8,2.3,5.1,5.1,5h38.9c0,0,0,0,0,0c2.8,0,5.1-2.3,5.1-5.1V16.8L32.1,0z
		 M20.1,44.2c-0.2,0.7-0.6,1.3-1,1.9c-0.5,0.6-1,1-1.6,1.4C16.7,47.8,16,48,15.2,48c-0.5,0-1-0.1-1.5-0.3c-0.5-0.2-1-0.5-1.4-0.8
		v3.9c0,0.5-0.1,1-0.4,1.3c-0.3,0.3-0.7,0.5-1.1,0.5c-0.5,0-0.9-0.2-1.1-0.5c-0.3-0.3-0.4-0.7-0.4-1.3V37.6c0-0.5,0.1-1,0.4-1.3
		c0.3-0.3,0.7-0.5,1.1-0.5c0.4,0,0.8,0.1,1,0.3c0.3,0.2,0.4,0.6,0.5,1c0.3-0.5,0.7-0.8,1.3-1.1c0.6-0.2,1.1-0.4,1.7-0.4
		c0.9,0,1.6,0.2,2.2,0.5c0.6,0.4,1.2,0.8,1.6,1.4c0.4,0.6,0.7,1.3,1,2c0.2,0.7,0.3,1.5,0.3,2.3C20.4,42.8,20.3,43.5,20.1,44.2z
		 M32.7,44.2c-0.2,0.7-0.6,1.3-1,1.9c-0.5,0.6-1,1-1.6,1.4c-0.6,0.3-1.4,0.5-2.2,0.5c-0.5,0-1-0.1-1.5-0.3c-0.5-0.2-1-0.5-1.4-0.8
		v3.9c0,0.5-0.1,1-0.4,1.3c-0.3,0.3-0.7,0.5-1.1,0.5c-0.5,0-0.9-0.2-1.1-0.5c-0.3-0.3-0.4-0.7-0.4-1.3V37.6c0-0.5,0.1-1,0.4-1.3
		c0.3-0.3,0.7-0.5,1.1-0.5c0.4,0,0.8,0.1,1,0.3c0.3,0.2,0.4,0.6,0.5,1c0.3-0.5,0.7-0.8,1.3-1.1c0.6-0.2,1.1-0.4,1.7-0.4
		c0.9,0,1.6,0.2,2.2,0.5c0.6,0.4,1.2,0.8,1.6,1.4c0.4,0.6,0.7,1.3,1,2c0.2,0.7,0.3,1.5,0.3,2.3C33.1,42.8,32.9,43.5,32.7,44.2z
		 M40.3,38.5c-0.3,0.2-0.7,0.3-1.1,0.3h-0.9v7.3c0,0.5-0.1,1-0.4,1.3c-0.3,0.3-0.7,0.5-1.1,0.5c-0.5,0-0.9-0.2-1.1-0.5
		c-0.3-0.3-0.4-0.7-0.4-1.3v-7.3h-0.7c-0.4,0-0.8-0.1-1-0.4c-0.2-0.2-0.4-0.6-0.4-1c0-0.4,0.1-0.7,0.4-1c0.3-0.3,0.6-0.4,1-0.4h0.7
		v-1.9c0-0.5,0.1-1,0.4-1.3c0.3-0.3,0.7-0.5,1.1-0.5c0.5,0,0.9,0.2,1.1,0.5c0.3,0.3,0.4,0.7,0.4,1.3V36h0.9c0.4,0,0.8,0.1,1.1,0.3
		c0.3,0.2,0.5,0.6,0.5,1.1C40.8,37.9,40.6,38.3,40.3,38.5z"/>
	<path class="st0" d="M16.6,39.7c-0.2-0.3-0.5-0.6-0.8-0.8c-0.3-0.2-0.7-0.3-1.1-0.3c-0.4,0-0.8,0.1-1.1,0.3
		c-0.3,0.2-0.6,0.4-0.8,0.7c-0.2,0.3-0.4,0.6-0.5,1s-0.2,0.8-0.2,1.1c0,0.4,0,0.8,0.1,1.2c0.1,0.4,0.2,0.8,0.5,1.1
		c0.2,0.3,0.5,0.6,0.8,0.8c0.3,0.2,0.7,0.3,1.1,0.3c0.4,0,0.8-0.1,1.1-0.3s0.6-0.4,0.8-0.7c0.2-0.3,0.4-0.7,0.5-1
		c0.1-0.4,0.2-0.8,0.2-1.1c0-0.4-0.1-0.8-0.2-1.1C17,40.4,16.8,40,16.6,39.7z"/>
</g>
<title>ppts-hover</title>
<path class="st1" d="M49,15.9V18H35.2c-2.9,0-4.2-2.3-4.2-5.2V0h2.1L49,15.9z"/>
</svg>
