<?xml version="1.0" encoding="utf-8"?>
<!-- Generator: Adobe Illustrator 19.2.1, SVG Export Plug-In . SVG Version: 6.00 Build 0)  -->
<svg version="1.1" id="Layer_1" xmlns="http://www.w3.org/2000/svg" xmlns:xlink="http://www.w3.org/1999/xlink" x="0px" y="0px"
	 width="49px" height="64px" viewBox="0 0 49 64" style="enable-background:new 0 0 49 64;" xml:space="preserve">
<style type="text/css">
	.st0{fill:#E28500;}
	.st1{fill:#FFCF8B;}
	.st2{enable-background:new    ;}
	.st3{fill:#FFFFFF;}
</style>
<g>
	<path class="st0" d="M49,16.8v42.1c0,2.8-2.3,5.1-5.1,5.1H5.1C2.3,64,0,61.7,0,58.9V5.1C0,2.3,2.3,0,5.1,0h27L49,16.8z"/>
	<path class="st1" d="M49,15.9V18H35.2c-2.9,0-4.2-2.3-4.2-5.2V0h2.1L49,15.9z"/>
</g>
<g class="st2">
	<path class="st3" d="M9.1,37.6c0-0.5,0.1-1,0.4-1.3c0.3-0.3,0.7-0.5,1.1-0.5c0.4,0,0.8,0.1,1,0.3c0.3,0.2,0.4,0.6,0.5,1
		c0.3-0.5,0.7-0.8,1.3-1.1c0.6-0.2,1.1-0.4,1.7-0.4c0.9,0,1.6,0.2,2.2,0.5c0.6,0.4,1.2,0.8,1.6,1.4c0.4,0.6,0.7,1.3,1,2
		c0.2,0.7,0.3,1.5,0.3,2.3c0,0.7-0.1,1.5-0.4,2.2c-0.2,0.7-0.6,1.3-1,1.9s-1,1-1.6,1.4C16.7,47.8,16,48,15.2,48
		c-0.5,0-1-0.1-1.5-0.3c-0.5-0.2-1-0.5-1.4-0.8v3.9c0,0.5-0.1,1-0.4,1.3c-0.3,0.3-0.7,0.5-1.1,0.5S9.9,52.3,9.6,52
		c-0.3-0.3-0.4-0.7-0.4-1.3V37.6z M12.3,41.8c0,0.4,0,0.8,0.1,1.2c0.1,0.4,0.2,0.8,0.5,1.1c0.2,0.3,0.5,0.6,0.8,0.8
		c0.3,0.2,0.7,0.3,1.1,0.3c0.4,0,0.8-0.1,1.1-0.3c0.3-0.2,0.6-0.4,0.8-0.7c0.2-0.3,0.4-0.7,0.5-1c0.1-0.4,0.2-0.8,0.2-1.1
		c0-0.4-0.1-0.8-0.2-1.1c-0.1-0.4-0.3-0.7-0.5-1c-0.2-0.3-0.5-0.6-0.8-0.8c-0.3-0.2-0.7-0.3-1.1-0.3c-0.4,0-0.8,0.1-1.1,0.3
		s-0.6,0.4-0.8,0.7c-0.2,0.3-0.4,0.6-0.5,1C12.4,41,12.3,41.4,12.3,41.8z"/>
	<path class="st3" d="M21.8,37.6c0-0.5,0.1-1,0.4-1.3c0.3-0.3,0.7-0.5,1.1-0.5c0.4,0,0.8,0.1,1,0.3c0.3,0.2,0.4,0.6,0.5,1
		c0.3-0.5,0.7-0.8,1.3-1.1c0.6-0.2,1.1-0.4,1.7-0.4c0.9,0,1.6,0.2,2.2,0.5c0.6,0.4,1.2,0.8,1.6,1.4c0.4,0.6,0.7,1.3,1,2
		c0.2,0.7,0.3,1.5,0.3,2.3c0,0.7-0.1,1.5-0.4,2.2c-0.2,0.7-0.6,1.3-1,1.9c-0.5,0.6-1,1-1.6,1.4c-0.6,0.3-1.4,0.5-2.2,0.5
		c-0.5,0-1-0.1-1.5-0.3c-0.5-0.2-1-0.5-1.4-0.8v3.9c0,0.5-0.1,1-0.4,1.3c-0.3,0.3-0.7,0.5-1.1,0.5s-0.9-0.2-1.1-0.5
		c-0.3-0.3-0.4-0.7-0.4-1.3V37.6z M24.9,41.8c0,0.4,0,0.8,0.1,1.2c0.1,0.4,0.2,0.8,0.5,1.1c0.2,0.3,0.5,0.6,0.8,0.8
		c0.3,0.2,0.7,0.3,1.1,0.3c0.4,0,0.8-0.1,1.1-0.3s0.6-0.4,0.8-0.7c0.2-0.3,0.4-0.7,0.5-1c0.1-0.4,0.2-0.8,0.2-1.1
		c0-0.4-0.1-0.8-0.2-1.1c-0.1-0.4-0.3-0.7-0.5-1c-0.2-0.3-0.5-0.6-0.8-0.8c-0.3-0.2-0.7-0.3-1.1-0.3c-0.4,0-0.8,0.1-1.1,0.3
		c-0.3,0.2-0.6,0.4-0.8,0.7c-0.2,0.3-0.4,0.6-0.5,1S24.9,41.4,24.9,41.8z"/>
	<path class="st3" d="M35.2,38.8h-0.7c-0.4,0-0.8-0.1-1-0.4c-0.2-0.2-0.4-0.6-0.4-1c0-0.4,0.1-0.7,0.4-1c0.3-0.3,0.6-0.4,1-0.4h0.7
		v-1.9c0-0.5,0.1-1,0.4-1.3c0.3-0.3,0.7-0.5,1.1-0.5c0.5,0,0.9,0.2,1.1,0.5c0.3,0.3,0.4,0.7,0.4,1.3V36h0.9c0.4,0,0.8,0.1,1.1,0.3
		c0.3,0.2,0.5,0.6,0.5,1.1c0,0.5-0.2,0.9-0.5,1.1c-0.3,0.2-0.7,0.3-1.1,0.3h-0.9v7.3c0,0.5-0.1,1-0.4,1.3c-0.3,0.3-0.7,0.5-1.1,0.5
		c-0.5,0-0.9-0.2-1.1-0.5c-0.3-0.3-0.4-0.7-0.4-1.3V38.8z"/>
</g>
</svg>
