<?xml version="1.0" encoding="utf-8"?>
<!-- Generator: Adobe Illustrator 19.2.1, SVG Export Plug-In . SVG Version: 6.00 Build 0)  -->
<svg version="1.1" id="Layer_1" xmlns="http://www.w3.org/2000/svg" xmlns:xlink="http://www.w3.org/1999/xlink" x="0px" y="0px"
	 width="49px" height="64px" viewBox="0 0 49 64" style="enable-background:new 0 0 49 64;" xml:space="preserve">
<style type="text/css">
	.st0{fill:#F2F2F2;}
	.st1{fill:#D2D2D2;}
</style>
<g>
	<path class="st0" d="M34.3,39.7c-0.2-0.3-0.5-0.6-0.8-0.8c-0.3-0.2-0.7-0.3-1.1-0.3c-0.4,0-0.8,0.1-1.1,0.3
		c-0.3,0.2-0.6,0.4-0.8,0.7c-0.2,0.3-0.4,0.6-0.5,1C30,41,30,41.4,30,41.8c0,0.4,0,0.8,0.1,1.2c0.1,0.4,0.2,0.8,0.5,1.1
		s0.5,0.6,0.8,0.8c0.3,0.2,0.7,0.3,1.1,0.3c0.4,0,0.8-0.1,1.1-0.3c0.3-0.2,0.6-0.4,0.8-0.7c0.2-0.3,0.4-0.7,0.5-1
		c0.1-0.4,0.2-0.8,0.2-1.1c0-0.4-0.1-0.8-0.2-1.1C34.7,40.4,34.5,40,34.3,39.7z"/>
	<path class="st0" d="M32.1,0h-27C2.3,0,0,2.3,0,5.1V59c0,2.7,2.3,5,5.1,5h38.8c2.8,0,5.1-2.3,5.1-5.1V16.8L32.1,0z M20.4,47.4
		c-0.3,0.2-0.6,0.4-1,0.4H12c-0.4,0-0.7-0.1-0.9-0.3c-0.3-0.2-0.4-0.4-0.4-0.8c0-0.2,0-0.3,0.1-0.5c0.1-0.2,0.1-0.3,0.2-0.4l5-7
		h-3.7c-0.4,0-0.7-0.1-1-0.4c-0.3-0.2-0.4-0.6-0.4-1c0-0.4,0.1-0.8,0.4-1c0.3-0.2,0.6-0.4,1-0.4h7.2c0.1,0,0.2,0,0.3,0
		c0.1,0,0.2,0.1,0.3,0.1c0.1,0.1,0.2,0.2,0.3,0.3c0.1,0.1,0.1,0.3,0.1,0.5c0,0.2,0,0.4-0.1,0.5c-0.1,0.1-0.1,0.3-0.3,0.4l-5,7h4.2
		c0.4,0,0.7,0.1,1,0.4c0.3,0.2,0.4,0.6,0.4,1C20.8,46.8,20.7,47.1,20.4,47.4z M25.1,46.1c0,0.5-0.1,1-0.4,1.3
		c-0.3,0.3-0.7,0.5-1.1,0.5s-0.9-0.2-1.1-0.5c-0.3-0.3-0.4-0.7-0.4-1.3v-8.4c0-0.5,0.1-1,0.4-1.3c0.3-0.3,0.7-0.5,1.1-0.5
		s0.9,0.2,1.1,0.5c0.3,0.3,0.4,0.7,0.4,1.3V46.1z M24.7,34.2c-0.3,0.4-0.8,0.5-1.3,0.5c-0.2,0-0.5-0.1-0.7-0.2
		c-0.2-0.1-0.4-0.2-0.6-0.4c-0.2-0.2-0.3-0.4-0.4-0.6c-0.1-0.2-0.1-0.5-0.1-0.7c0-0.2,0-0.4,0.1-0.6c0.1-0.2,0.2-0.4,0.4-0.6
		c0.2-0.2,0.4-0.3,0.6-0.4c0.2-0.1,0.4-0.1,0.7-0.1c0.2,0,0.5,0,0.7,0.1c0.2,0.1,0.4,0.2,0.6,0.4c0.2,0.2,0.3,0.3,0.4,0.5
		s0.1,0.4,0.1,0.7C25.3,33.4,25.1,33.8,24.7,34.2z M37.7,44.2c-0.2,0.7-0.6,1.3-1,1.9c-0.5,0.6-1,1-1.7,1.4
		c-0.6,0.3-1.4,0.5-2.2,0.5c-0.5,0-1-0.1-1.5-0.3c-0.5-0.2-1-0.5-1.4-0.8v3.9c0,0.5-0.1,1-0.4,1.3c-0.3,0.3-0.7,0.5-1.1,0.5
		c-0.5,0-0.9-0.2-1.1-0.5c-0.3-0.3-0.4-0.7-0.4-1.3V37.6c0-0.5,0.1-1,0.4-1.3c0.3-0.3,0.7-0.5,1.1-0.5c0.4,0,0.8,0.1,1,0.3
		s0.4,0.6,0.5,1c0.3-0.5,0.7-0.8,1.3-1.1c0.6-0.2,1.1-0.4,1.7-0.4c0.9,0,1.6,0.2,2.2,0.5c0.6,0.4,1.2,0.8,1.6,1.4
		c0.4,0.6,0.7,1.3,1,2s0.3,1.5,0.3,2.3C38.1,42.8,38,43.5,37.7,44.2z"/>
</g>
<title>zips-hover</title>
<path class="st1" d="M49,15.9V18H35.2c-2.9,0-4.2-2.3-4.2-5.2V0h2.1L49,15.9z"/>
</svg>
