<svg width="175" height="170" style="position:absolute; background:none !important" viewBox="0 0 175 170" xmlns="http://www.w3.org/2000/svg" xmlns:xlink="http://www.w3.org/1999/xlink"><view id="icon-alarm" viewBox="24.5 137.92000000000002 30 30"/><svg height="30" viewBox="0 0 9391 9391" width="30" shape-rendering="geometricPrecision" text-rendering="geometricPrecision" image-rendering="optimizeQuality" fill-rule="evenodd" clip-rule="evenodd" x="24.5" y="137.92000000000002"><defs><style>.aafil1{fill:#fefefe}.aafil0{fill:#e31e24}.aafil3{fill:#009846}.aafil2{fill:#2b2a29;fill-opacity:.101961}</style></defs><g id="aaLayer_x0020_1"><g id="aa_101218229808"><circle class="aafil0" cx="4695" cy="4695" r="4695"/><path class="aafil1" d="M7331 3392c-127 270-213 565-235 910-32 500 83 973 326 1382 48 83 115 180 176 255 22 27 46 49 62 76-137-51-373-263-465-385-182-242-188-353-224-622-77 177-116 563-97 778 2 23 4 45 7 68 15 115 43 224 81 324 17 46 37 90 58 132 14 26 28 51 42 74 13 21 26 40 39 59 177 248 630 537 449 792-72 102-198 81-334 55 31 109 133 231 222 318-716 675-1681 1088-2743 1088-1105 0-2105-448-2829-1172S694 5800 694 4695s448-2105 1172-2829S3590 694 4695 694s2105 448 2829 1172c299 299 551 645 744 1027-351 261-446 680-366 1145 47 273 97 318 136 476-30-17-108-115-136-155-132-186-215-388-237-630-23-256 28-517 117-747 26-68 68-138 89-196-203 64-438 390-540 606zm631 3613c-40-266-159-520-343-712-20-21-41-34-56-62 126 73 168 76 325 185 55 37 98 73 144 114 21 19 39 39 61 65 43 51 25 64 61 68 10-20-61-209-71-246-83-286-127-591-127-894-1-289-58-576-175-832-38-83-86-153-119-225 49 26 115 83 157 117 99 84 190 183 277 286 234 277 364 581 432 979-126 419-319 809-566 1157zm669-1588v-4c-12-495-365-786-222-1367 41 238 131 406 250 550 12 15 25 31 37 45v54c0 247-22 488-65 722zm-990-3668C6887 995 5846 529 4695 529c-1150 0-2192 466-2946 1220S529 3545 529 4695c0 1151 466 2192 1220 2946s1796 1221 2946 1221c1151 0 2192-467 2946-1221s1221-1795 1221-2946c0-1150-467-2192-1221-2946z"/><path class="aafil2" d="M4283 9382l1313-1513c-6-309 455-693 537-873 260-624 155-1336 91-2080 32-439-510-516-561-225 41-340-558-392-614-150-26-365-619-322-728-52 11-410 1-975 11-1400h489V1538H3287L49 5293c272 2178 2035 3892 4234 4089zm-489-6481c99-226 425-253 516 0h325V1726H3473v1175h321zm260-867c154 0 279 125 279 280 0 154-125 279-279 279s-279-125-279-279c0-155 125-280 279-280z"/><path class="aafil3" d="M4695 529c1151 0 2192 466 2946 1220s1221 1796 1221 2946c0 1151-467 2192-1221 2946S5846 8862 4695 8862c-1150 0-2192-467-2946-1221S529 5846 529 4695c0-1150 466-2192 1220-2946S3545 529 4695 529zm4696 4166C9391 2102 7288 0 4695 0S0 2102 0 4695s2102 4696 4695 4696 4696-2103 4696-4696z"/><path class="aafil1" d="M3286 1540h1533v1551h-489c-9 426 0 990-11 1401 109-271 703-314 728 52 56-243 655-191 614 150 52-291 594-214 561 224 65 745 169 1457-91 2080-82 180-543 564-537 873-712 12-937-17-1649-6 0-132-269-317-269-450-326-252-520-561-656-895-117-600 117-1148 35-1773 29-550 512 107 532 487 39 246 46 482 0 718-2 114 214 155 204-62l-26-2799h-479V1540zm507 1363c99-225 424-253 515 0h325V1729H3472v1174h321zm259-866c155 0 280 125 280 279s-125 279-280 279c-154 0-279-125-279-279s125-279 279-279z"/></g></g></svg><view id="icon-camera" viewBox="0 105.92 32 32"/><svg id="abLayer_1" viewBox="0 0 512 512" width="32" height="32" y="105.92"><style>.abst0{fill:#231f20}</style><path class="abst0" d="M453.1 125.4h-63.9c-3.6 0-7-1.4-9.5-3.9l-44.2-44.3-.2-.2-.1-.1C328 69.7 318 65.3 307 65.3H206.9c-11.6 0-22 5-29.4 13v-.1l-43.2 43.3c-2.5 2.5-5.9 3.9-9.5 3.9H59.1c-29.5 0-53.5 24-53.5 53.5v213.6c0 29.5 24 53.5 53.5 53.5H453c29.6 0 53.5-24 53.5-53.5V178.9c.1-29.5-23.9-53.5-53.4-53.5zM192.2 91.9c3.9-4.2 9.1-6.5 14.6-6.5H307c5.3 0 10.3 2.1 14.2 5.9l48.2 48.3 1.9 1.9c2.5 2.5 5.9 3.9 9.5 3.9H466.4c11 0 20 9 20 20v240.4c0 11-9 20-20 20H59.1c-18.4 0-33.5-15.1-33.5-33.5V178.9c0-18.5 15-33.5 33.5-33.5h73.8c3.6 0 7-1.4 9.5-3.9l1.9-1.9 24.3-24.3 23.6-23.4z"/><path class="abst0" d="M256.1 145.5c-71.9 0-130.2 58.3-130.2 130.2S184.2 406 256.1 406s130.2-58.3 130.2-130.3S328 145.5 256.1 145.5zm0 240.4c-60.8 0-110.2-49.4-110.2-110.2 0-60.8 49.4-110.2 110.2-110.2s110.2 49.4 110.2 110.2c0 60.7-49.4 110.2-110.2 110.2z"/><path class="abst0" d="M256.1 185.5c-49.8 0-90.2 40.3-90.2 90.1s40.4 90.2 90.2 90.2 90.2-40.4 90.2-90.2-40.4-90.1-90.2-90.1zm0 160.3c-38.7 0-70.1-31.5-70.1-70.1s31.5-70.1 70.1-70.1 70.1 31.4 70.1 70.1-31.4 70.1-70.1 70.1z"/></svg><view id="icon-camera-white" viewBox="56.5 0 32 32"/><svg id="acLayer_1" viewBox="0 0 512 512" width="32" height="32" x="56.5"><style>.acst0{fill:#fff}</style><path class="acst0" d="M453.1 125.4h-63.9c-3.6 0-7-1.4-9.5-3.9l-44.2-44.3-.2-.2-.1-.1C328 69.7 318 65.3 307 65.3H206.9c-11.6 0-22 5-29.4 13v-.1l-43.2 43.3c-2.5 2.5-5.9 3.9-9.5 3.9H59.1c-29.5 0-53.5 24-53.5 53.5v213.6c0 29.5 24 53.5 53.5 53.5H453c29.6 0 53.5-24 53.5-53.5V178.9c.1-29.5-23.9-53.5-53.4-53.5zM192.2 91.9c3.9-4.2 9.1-6.5 14.6-6.5H307c5.3 0 10.3 2.1 14.2 5.9l48.2 48.3 1.9 1.9c2.5 2.5 5.9 3.9 9.5 3.9H466.4c11 0 20 9 20 20v240.4c0 11-9 20-20 20H59.1c-18.4 0-33.5-15.1-33.5-33.5V178.9c0-18.5 15-33.5 33.5-33.5h73.8c3.6 0 7-1.4 9.5-3.9l1.9-1.9 24.3-24.3 23.6-23.4z"/><path class="acst0" d="M256.1 145.5c-71.9 0-130.2 58.3-130.2 130.2S184.2 406 256.1 406s130.2-58.3 130.2-130.3S328 145.5 256.1 145.5zm0 240.4c-60.8 0-110.2-49.4-110.2-110.2s49.4-110.2 110.2-110.2 110.2 49.4 110.2 110.2c0 60.7-49.4 110.2-110.2 110.2z"/><path class="acst0" d="M256.1 185.5c-49.8 0-90.2 40.3-90.2 90.1s40.4 90.2 90.2 90.2 90.2-40.4 90.2-90.2-40.4-90.1-90.2-90.1zm0 160.3c-38.7 0-70.1-31.5-70.1-70.1s31.5-70.1 70.1-70.1 70.1 31.4 70.1 70.1-31.4 70.1-70.1 70.1z"/></svg><view id="icon-car" viewBox="0 32 32 32"/><svg height="32" version="1" viewBox="0 0 110 110" width="32" y="32"><circle cx="55" cy="55" r="55" fill="#32bea6"/><path d="M34 63c10 0 12 9 29 9 0-5 4-9 11-9s13 9 13 9c0-9.122-3-27-21.544-27H53.708a4 4 0 0 0-3.714 2.514L47 55H31c-3.86 0-5 4-7 17 .91-.258 8.901-9 10-9z" fill="#3e3e3f"/><path d="M34 63c10 0 12 9 29 9 0-5 4-9 11-9 .245 0 .486.035.728.057C70.956 61.038 59.779 59 30 59a28.84 28.84 0 0 0-3.395.189c-.76 2.188-1.405 5.365-2.129 9.808C26.021 65.998 29.002 63 34 63z" fill="#5b5c5f"/><path d="M23.224 72.677A2.002 2.002 0 0 0 25.2 75H84a3 3 0 0 0 3-3s-6-9-13-9-11 4-11 9c-17 0-19-9-29-9-7.181 0-10.205 6.188-10.776 9.677z" fill="#fff"/><circle cx="34" cy="73" r="6" fill="#3e3e3f"/><circle cx="34" cy="73" r="2" fill="#cfd3d4"/><circle cx="73" cy="73" r="6" fill="#3e3e3f"/><circle cx="73" cy="73" r="2" fill="#cfd3d4"/><path d="M67 48.083A16.715 16.715 0 0 0 65.398 48H53.754a1 1 0 0 0-.961.725l-1.429 5A1 1 0 0 0 52.326 55H67v-6.917zM77.626 53.318A16.711 16.711 0 0 0 71 48.986V55h5.894a1 1 0 0 0 .732-1.682z" fill="#40c9e7"/><path d="M26.198 57h-2v6h2a3 3 0 1 0 0-6z" fill="#3e3e3f"/><path fill="#5b5c5f" d="M23.198 57h1v6h-1z"/><path d="M53.754 48a1 1 0 0 0-.962.725l-1.428 5A1 1 0 0 0 52.326 55h2.073l7-7h-7.645z" fill="#6fdaf1"/></svg><view id="icon-chat" viewBox="32 32 32 32"/><svg width="32" height="32" viewBox="0 0 85.039 85.039" x="32" y="32"><path fill="#8194A2" d="M82.613 42.77c0-17.934-17.893-32.479-40-32.479s-40 14.545-40 32.479c0 9.38 4.876 17.769 12.687 23.678-1.447 3.801-3.967 8.719-8.141 13.801 7.975 0 18.264-1.033 26.198-5.908 2.975.578 6.075.908 9.256.908 22.108.042 40-14.504 40-32.479z"/></svg><view id="icon-chat-active" viewBox="88.5 0 32 32"/><svg id="afgLayer_1" viewBox="-262 355 85 85" width="32" height="32" x="88.5"><style>.afst0{fill:#236093}</style><path class="afst0" d="M-179.4 397.7c0-17.9-17.9-32.5-40-32.5s-40 14.5-40 32.5c0 9.4 4.9 17.8 12.7 23.7-1.4 3.8-4 8.7-8.1 13.8 8 0 18.3-1 26.2-5.9 3 .6 6.1.9 9.3.9 22 .1 39.9-14.5 39.9-32.5z"/></svg><view id="icon-docs" viewBox="88.5 32 24.5 32"/><svg id="agLayer_1" width="24.5" height="32" viewBox="0 0 49 64" x="88.5" y="32"><style>.agst0{fill:#067fcb}.agst1{fill:#7cc9f9}.agst2{enable-background:new}.agst3{fill:#fff}</style><path class="agst0" d="M49 16.8v42.1c0 2.8-2.3 5.1-5.1 5.1H5.1C2.3 64 0 61.7 0 58.9V5.1C0 2.3 2.3 0 5.1 0h27L49 16.8z"/><path class="agst1" d="M49 15.9V18H35.2c-2.9 0-4.2-2.3-4.2-5.2V0h2.1L49 15.9z"/><g class="agst2"><path class="agst3" d="M18.7 46.1c0 .5-.1 1-.4 1.3-.3.3-.7.5-1.1.5-.4 0-.8-.1-1-.3-.3-.2-.4-.6-.5-1-.3.5-.7.8-1.3 1.1-.5.2-1.1.4-1.6.4-.8 0-1.5-.2-2.2-.5-.6-.3-1.2-.8-1.6-1.4-.5-.6-.8-1.2-1-1.9-.2-.7-.4-1.4-.4-2.2 0-.8.1-1.5.3-2.3.2-.7.5-1.4 1-2 .4-.6 1-1.1 1.6-1.4.6-.4 1.4-.5 2.2-.5.6 0 1.1.1 1.6.3.5.2 1 .5 1.4.8v-4.3c0-.5.1-1 .4-1.3.3-.3.7-.5 1.1-.5.5 0 .9.2 1.1.5.3.3.4.7.4 1.3v13.4zm-3.2-4.3c0-.4-.1-.8-.2-1.1s-.3-.7-.5-1c-.2-.3-.5-.5-.8-.7s-.7-.3-1.1-.3c-.4 0-.8.1-1.1.3-.3.2-.6.5-.8.8-.2.3-.4.7-.5 1-.1.4-.2.8-.2 1.1 0 .4.1.7.2 1.1.1.4.3.7.5 1 .2.3.5.6.8.7.3.2.7.3 1.1.3.4 0 .8-.1 1.1-.3.3-.2.6-.5.8-.8s.4-.7.5-1.1c.2-.3.2-.6.2-1zM25.7 35.7c.8 0 1.6.2 2.3.5.7.3 1.3.8 1.8 1.4.5.6.9 1.2 1.2 2 .3.7.4 1.5.4 2.3 0 .8-.1 1.6-.4 2.3-.3.7-.7 1.4-1.2 1.9-.5.6-1.1 1-1.8 1.3-.7.3-1.5.5-2.3.5-.9 0-1.6-.2-2.3-.5-.7-.3-1.3-.8-1.8-1.3s-.9-1.2-1.2-1.9c-.3-.7-.4-1.5-.4-2.3 0-.8.1-1.6.4-2.3.3-.7.7-1.4 1.2-2 .5-.6 1.1-1 1.8-1.4.7-.3 1.5-.5 2.3-.5zm0 3c-.4 0-.8.1-1.1.3-.3.2-.6.5-.8.8-.2.3-.4.7-.5 1-.1.4-.1.8-.1 1.1 0 .4.1.8.2 1.1.1.4.3.7.5 1 .2.3.5.5.8.7s.7.3 1.1.3c.4 0 .8-.1 1.1-.3.3-.2.6-.4.8-.7.2-.3.4-.6.5-1 .1-.4.2-.8.2-1.1 0-.4 0-.8-.1-1.1-.1-.4-.2-.7-.5-1-.2-.3-.5-.6-.8-.8-.5-.2-.8-.3-1.3-.3zM41.8 37.7c0 .2 0 .3-.1.5s-.1.3-.2.5c-.1.1-.2.3-.4.4-.1.1-.3.1-.5.1s-.4 0-.6-.1c-.2-.1-.4-.1-.6-.2s-.4-.1-.6-.2c-.2-.1-.5-.1-.7-.1-.5 0-.8.1-1.2.3s-.6.4-.8.7c-.2.3-.4.6-.5 1-.1.4-.2.8-.2 1.2 0 .4.1.8.2 1.2.1.4.3.7.5 1s.5.5.8.7.7.3 1.1.3c.2 0 .4 0 .7-.1.2-.1.5-.1.7-.2.2-.1.4-.2.6-.2.2-.1.3-.1.4-.1.4 0 .7.1 1 .4s.4.6.4 1-.1.8-.4 1c-.3.3-.6.5-1.1.7-.4.2-.8.3-1.3.4-.4 0-.8.1-1 .1-.9 0-1.6-.2-2.3-.5-.7-.3-1.3-.8-1.8-1.3-.5-.6-.9-1.2-1.2-1.9-.3-.7-.4-1.5-.4-2.3 0-.8.1-1.6.4-2.3.3-.7.7-1.4 1.2-2 .5-.6 1.1-1 1.8-1.4.7-.3 1.5-.5 2.3-.5.3 0 .7 0 1.1.1.4.1.9.2 1.3.3s.7.4 1 .6.4.6.4.9z"/></g></svg><view id="icon-docs-hover" viewBox="64 32 24.5 32"/><svg id="ahLayer_1" width="24.5" height="32" viewBox="0 0 49 64" x="64" y="32"><style>.ahst0{fill:#f2f2f2}.ahst1{fill:#d1d1d1}</style><path class="ahst0" d="M32.1 0h-27C2.3 0 0 2.3 0 5.1v53.8C0 61.7 2.3 64 5.1 64h38.8c2.8 0 5.1-2.3 5.1-5.1V16.8L32.1 0zM18.7 46.1c0 .5-.1 1-.4 1.3-.3.3-.7.5-1.1.5-.4 0-.8-.1-1-.3-.3-.2-.4-.6-.5-1-.3.5-.7.8-1.3 1.1-.5.2-1.1.4-1.6.4-.8 0-1.5-.2-2.2-.5-.6-.3-1.2-.8-1.6-1.4-.5-.6-.8-1.2-1-1.9-.2-.7-.4-1.4-.4-2.2 0-.8.1-1.5.3-2.3.2-.7.5-1.4 1-2 .4-.6 1-1.1 1.6-1.4.6-.4 1.4-.5 2.2-.5.6 0 1.1.1 1.6.3.5.2 1 .5 1.4.8v-4.3c0-.5.1-1 .4-1.3.3-.3.7-.5 1.1-.5.5 0 .9.2 1.1.5.3.3.4.7.4 1.3v13.4zM31 44.2c-.3.7-.7 1.4-1.2 1.9-.5.6-1.1 1-1.8 1.3-.7.3-1.5.5-2.3.5s-1.6-.2-2.3-.5c-.7-.3-1.3-.8-1.8-1.3s-.9-1.2-1.2-1.9c-.3-.7-.4-1.5-.4-2.3 0-.8.1-1.6.4-2.3.3-.7.7-1.4 1.2-2 .5-.6 1.1-1 1.8-1.4.7-.3 1.5-.5 2.3-.5s1.6.2 2.3.5c.7.3 1.3.8 1.8 1.4.5.6.9 1.2 1.2 2 .3.7.4 1.5.4 2.3 0 .8-.1 1.6-.4 2.3zm4.6-1.1c.1.4.3.7.5 1s.5.5.8.7.7.3 1.1.3c.2 0 .4 0 .7-.1.2-.1.5-.1.7-.2.2-.1.4-.2.6-.2.2-.1.3-.1.4-.1.4 0 .7.1 1 .4s.4.6.4 1-.1.8-.4 1c-.3.3-.6.5-1.1.7-.4.2-.8.3-1.3.4-.4-.1-.8 0-1 0-.9 0-1.6-.2-2.3-.5-.7-.3-1.3-.8-1.8-1.3-.5-.6-.9-1.2-1.2-1.9-.3-.7-.4-1.5-.4-2.3 0-.8.1-1.6.4-2.3.3-.7.7-1.4 1.2-2 .5-.6 1.1-1 1.8-1.4.7-.3 1.5-.5 2.3-.5.3 0 .7 0 1.1.1.4.1.9.2 1.3.3s.7.4 1 .6.4.6.4 1c0 .2 0 .3-.1.5s-.1.3-.2.5c-.1.1-.2.3-.4.4-.1.1-.3.1-.5.1s-.4 0-.6-.1c-.2-.1-.4-.1-.6-.2s-.4-.1-.6-.2c-.2-.1-.5-.1-.7-.1-.5 0-.8.1-1.2.3s-.6.4-.8.7c-.2.3-.4.6-.5 1-.1.4-.2.8-.2 1.2 0 .4.1.8.2 1.2z"/><path class="ahst0" d="M27.6 39.7c-.2-.3-.5-.6-.8-.8-.3-.2-.7-.3-1.1-.3s-.8.1-1.1.3c-.3.2-.6.5-.8.8-.2.3-.4.7-.5 1-.1.4-.1.8-.1 1.1 0 .4.1.8.2 1.1.1.4.3.7.5 1 .2.3.5.5.8.7s.7.3 1.1.3c.4 0 .8-.1 1.1-.3.3-.2.6-.4.8-.7.2-.3.4-.6.5-1 .1-.4.2-.8.2-1.1 0-.4 0-.8-.1-1.1-.3-.3-.5-.7-.7-1zM14.9 39.6c-.2-.3-.5-.5-.8-.7s-.7-.3-1.1-.3c-.4 0-.8.1-1.1.3-.3.2-.6.5-.8.8-.2.3-.4.7-.5 1-.1.4-.2.8-.2 1.1 0 .4.1.7.2 1.1.1.4.3.7.5 1 .2.3.5.6.8.7.3.2.7.3 1.1.3.4 0 .8-.1 1.1-.3.3-.2.6-.5.8-.8s.4-.7.5-1.1c.1-.4.1-.8.1-1.2 0-.4-.1-.8-.2-1.1s-.2-.5-.4-.8z"/><path class="ahst1" d="M49 15.9V18H35.2c-2.9 0-4.2-2.3-4.2-5.2V0h2.1L49 15.9z"/></svg><view id="icon-download" viewBox="0 64 32 32"/><svg height="32" viewBox="0 0 128 128" width="32" y="64"><path d="M128 120V24c0-4.422-3.582-8-8-8H88v8h32v96H8V24h32v-8H8c-4.422 0-8 3.578-8 8v96c0 4.422 3.578 8 8 8h112c4.418 0 8-3.578 8-8z" fill="#B0BEC5"/><path d="M40 48a7.97 7.97 0 0 1 2.344-5.656 7.998 7.998 0 0 1 11.313 0L56 44.688V16c0-4.422 3.582-8 8-8s8 3.578 8 8v28.688l2.344-2.344a7.998 7.998 0 0 1 11.313 0C87.219 43.906 88 45.953 88 48s-.781 4.094-2.344 5.656l-16 16a7.998 7.998 0 0 1-11.313 0l-16-16A7.974 7.974 0 0 1 40 48m-8 0c0 4.273 1.664 8.289 4.688 11.313l16 16C55.711 78.336 59.727 80 64 80s8.289-1.664 11.313-4.688l16-16C94.336 56.289 96 52.273 96 48s-1.664-8.289-4.688-11.313a15.954 15.954 0 0 0-11.313-4.68V16c0-8.82-7.176-16-16-16-8.82 0-16 7.18-16 16v16.008a15.956 15.956 0 0 0-11.313 4.68A15.894 15.894 0 0 0 32 48z" fill="#03A9F4"/><path d="M104 104H24v-8h80v8m8 8V88H16v24h96z" fill="#90CAF9"/></svg><view id="icon-eyepreso" viewBox="54.5 137.92000000000002 24.02 16"/><svg viewBox="0 0 24.02 16" width="24.02" height="16" x="54.5" y="137.92000000000002"><title>eyepreso2</title><path data-name="outer" d="M12.01 0c-7.94 0-12 8-12 8s3.07 8 12 8c8.09 0 12-8 12-8s-3.94-8-12-8zm0 13a4.88 4.88 0 0 1-5-5 4.88 4.88 0 0 1 5-5 4.88 4.88 0 0 1 5 5 4.88 4.88 0 0 1-5 5z"/><path data-name="inner" d="M12.01 5a3 3 0 1 0 3 3 3 3 0 0 0-3-3z"/></svg><view id="icon-facebook" viewBox="56.5 64 32 32"/><svg height="32" version="1" viewBox="0 0 32 32" width="32" x="56.5" y="64"><path d="M32 30a2 2 0 0 1-2 2H2a2 2 0 0 1-2-2V2a2 2 0 0 1 2-2h28a2 2 0 0 1 2 2v28z" fill="#3B5998"/><path d="M22 32V20h4l1-5h-5v-2c0-2 1.002-3 3-3h2V5h-4c-3.675 0-6 2.881-6 7v3h-4v5h4v12h5z" fill="#FFF"/></svg><view id="icon-folder" viewBox="88.5 64 32 32"/><svg viewBox="0 0 499.997 500.002" width="32" height="32" x="88.5" y="64"><path d="M250.001 0C111.93 0 0 111.93 0 249.997c0 138.066 111.93 250.005 250.001 250.005 138.066 0 249.996-111.939 249.996-250.005C499.997 111.93 388.067 0 250.001 0z" fill="#f2955c"/><path fill="#efeff0" d="M293.841 341.838h62.548v5.811h-62.548zM143.606 341.838h62.555v5.811h-62.555z"/><path fill="#656d78" d="M244.723 318.152h10.561v18.176h33.733v17.599h-78.022v-17.599h33.728z"/><g><path d="M369.214 177.708v134.103H130.783V201.497c0-8.64 7.07-15.717 15.724-15.717h121.268c5.579 0 10.243-3.958 11.339-9.216.066-.306.122-.636.158-.956 1.033-7.655 7.623-13.616 15.562-13.616h58.662c8.648-.001 15.718 7.067 15.718 15.716z" fill="#fff"/></g></svg><view id="icon-gwapo-logo" viewBox="0 96 32 9.92"/><svg id="amLayer_1" data-name="Layer 1" viewBox="0 0 477.59 148.03" width="32" height="9.92" y="96"><defs><style>.amcls-1{fill:#fff}</style></defs><title>mars-gwapo-logo</title><path class="amcls-1" d="M3.65 106.29h7.71l7.11 28.5 7.01-28.5h5.51l6.89 28.5 7.16-28.5h7.72l-11.85 40.74H34.9l-6.62-26.95-6.77 26.95h-6.02L3.65 106.29zM56.62 106.29H78.5v7.34H64.17V123h13.72v7.33H64.17v9.37H78.5v7.33H56.62v-40.74zM114.33 106.3h5.9l17.14 40.7H129l-4.41-10.53h-14.4L105.67 147h-8.32zm7.33 22.87l-4.36-12.35-4.35 12.35h8.71zM139.69 106.29h11.8c3.86.06 7.5.28 10.58 2.87a13.32 13.32 0 0 1 4.74 10 14.5 14.5 0 0 1-3.36 8.88 13.36 13.36 0 0 1-7.22 3.92l11 15h-9.31l-10.59-15.6h-.11V147h-7.55v-40.71zm11.68 19.41c2 0 4.52-.28 6-1.71a6 6 0 0 0 1.87-4.41 5.66 5.66 0 0 0-2.2-4.57c-1.77-1.32-3.53-1.38-5.63-1.38h-4.19v12.07h4.14zM171.66 106.29h21.88v7.34h-14.33V123h13.73v7.33h-13.73v9.37h14.33v7.33h-21.88v-40.74zM215.75 147v-40.71h9.59c3.91 0 7.61-.17 11 2.15a12.43 12.43 0 0 1 5.4 10.25 13.14 13.14 0 0 1-4.85 10.42c-3.36 2.7-8.1 2.48-12.13 2.48h-1.49V147h-7.55zm8.93-22.76a20.83 20.83 0 0 0 5.84-.44 5.21 5.21 0 0 0 3.69-5 5 5 0 0 0-3.91-4.85 24.24 24.24 0 0 0-5.62-.33h-1.38v10.64h1.38zM246.62 106.29h11.8c3.86.06 7.5.28 10.58 2.87a13.32 13.32 0 0 1 4.74 10 14.5 14.5 0 0 1-3.36 8.88 13.37 13.37 0 0 1-7.22 3.92l11 15h-9.32l-10.59-15.6h-.11V147h-7.55v-40.71zm11.68 19.41c2 0 4.52-.28 6-1.71a6 6 0 0 0 1.87-4.41A5.66 5.66 0 0 0 264 115c-1.76-1.32-3.53-1.38-5.62-1.38h-4.19v12.08h4.13z"/><path class="amcls-1" d="M318.94 126.85a21.22 21.22 0 1 1-21.23-21.33 21.23 21.23 0 0 1 21.23 21.33m-34.9-.16a13.68 13.68 0 1 0 27.34 0 13.67 13.67 0 1 0-27.34 0M331.53 106.29v25.41c0 1.88-.11 3.81.78 5.51a6.07 6.07 0 0 0 5.4 3.47 6.2 6.2 0 0 0 5.12-2.87c1.16-1.87 1.11-4 1.11-6.12v-25.4h7.55v25.41c0 4-.33 7.83-3 11a14.53 14.53 0 0 1-10.8 5.29 14.67 14.67 0 0 1-10.42-5c-3-3.36-3.3-7.12-3.3-11.36v-25.34h7.55zM358.36 106.29h8.54c6.07.06 12.3.66 17.09 4.74 4.47 3.75 7 10 7 15.82a20.92 20.92 0 0 1-7 15.49c-4.91 4.19-10.69 4.68-16.93 4.68h-8.71v-40.73zm8.49 33.41c4.25 0 8.16-.17 11.68-2.76a12.63 12.63 0 0 0 4.91-10.08 13 13 0 0 0-5.44-10.81c-3.42-2.31-7.6-2.43-11.57-2.43h-.55v26.08h.94zM451.82 126.85a21.22 21.22 0 1 1-21.23-21.33 21.23 21.23 0 0 1 21.23 21.33m-34.89-.16c0 7.55 6.23 14 13.67 14a14 14 0 0 0 13.67-14 13.67 13.67 0 1 0-27.34 0M456.86 106.29h20.73v7.34h-13.17V123h12.57v7.33h-12.57v16.7h-7.56v-40.74zM86.07 38.48q.12 1.42.18 2.84t.06 2.68q0 14.09-7.22 24.62a42.06 42.06 0 0 1-15.57 13.9 43.31 43.31 0 0 1-20.3 5A41.33 41.33 0 0 1 12 74.11Q0 61.45 0 42.86a41.82 41.82 0 0 1 12.78-30.43A42.17 42.17 0 0 1 43.45 0a41.79 41.79 0 0 1 13 2A42.3 42.3 0 0 1 67.9 7.76a43.78 43.78 0 0 1 9.41 9.11A45.65 45.65 0 0 1 83.94 29H60.5a27.88 27.88 0 0 0-8.11-6.15 21.91 21.91 0 0 0-17.82-.24 22.14 22.14 0 0 0-7 4.8 22.64 22.64 0 0 0-4.68 7 21.53 21.53 0 0 0-1.7 8.59A23.43 23.43 0 0 0 23 52.27a25.09 25.09 0 0 0 4.85 7.52 22.53 22.53 0 0 0 7 5 19.6 19.6 0 0 0 8.34 1.83 21.23 21.23 0 0 0 10.89-2.9 21.67 21.67 0 0 0 8.05-8.47h-24V38.48h48zM92.47 85.83V1.65h27.94a81.24 81.24 0 0 1 11.9.77 21.25 21.25 0 0 1 9.41 3.85q11.36 7.92 11.37 23.55 0 10.3-5 17.46a24.5 24.5 0 0 1-14 9.65l20.6 28.89h-25.52l-16.1-27.11v27.12h-20.6zm24.63-45.34q7.69 0 11.42-2.25t3.73-7.93q0-5.33-3.32-7.58t-10.18-2.25h-5.68v20h4zM157.23 42.86A41.73 41.73 0 0 1 170 12.43Q182.56.12 200.67.12a41.83 41.83 0 0 1 16.22 3.2 43.5 43.5 0 0 1 13.85 9.23 44.79 44.79 0 0 1 9.71 14.21 41.81 41.81 0 0 1 3.31 16.45 46.27 46.27 0 0 1-3.08 17 41.35 41.35 0 0 1-9.12 14A42.38 42.38 0 0 1 217.43 84a43 43 0 0 1-16.87 3.37q-18.82 0-31.37-13.26-12-12.67-12-31.26m21.19.24a23.09 23.09 0 0 0 1.83 9.23 24.76 24.76 0 0 0 4.92 7.46 22.31 22.31 0 0 0 7 5 20.14 20.14 0 0 0 8.34 1.78 21.44 21.44 0 0 0 8.52-1.72 20.55 20.55 0 0 0 7-4.85 23.2 23.2 0 0 0 4.68-7.46 25.29 25.29 0 0 0 1.72-9.41 21.84 21.84 0 0 0-1.72-8.65 22.66 22.66 0 0 0-4.68-7 21.78 21.78 0 0 0-6.87-4.74A20.68 20.68 0 0 0 200.8 21a22.56 22.56 0 0 0-8.8 1.67 22 22 0 0 0-13.58 20.43M263.9 85.83L241.17 1.65h22.25l11.25 48.19 12.08-48.19h18.23l11.96 48.19L328.3 1.65h22.14l-22.73 84.18h-18.94l-12.9-47-13.03 47H263.9zM371.92 85.83V21.19h-15.63V1.65h52.21v19.54h-15.98v64.64h-20.6zM455.45 53.63h-21.07v32.2h-20.6V1.66h20.6v31.97h21.07V1.66h20.72v84.17h-20.72v-32.2z"/></svg><view id="icon-icon-pdf" viewBox="120.5 0 22.25 32"/><svg id="anIsolation_Mode" data-name="Isolation Mode" viewBox="0 0 223.76 321.87" width="22.25" height="32" x="120.5"><defs><style>.ancls-1{fill:#231f20}.ancls-2{fill:#fff}</style></defs><title>icon-pdf</title><rect class="ancls-1" x="49.37" y="117.98" width="174.38" height="82.11" rx="3.62" ry="3.62"/><path class="ancls-1" d="M117.6 321.87a9.57 9.57 0 0 1-7.68-3.81l-40.58-53.18A9.66 9.66 0 0 1 77 249.36h11.47v-31.87A9.53 9.53 0 0 1 98 208h39.17a9.53 9.53 0 0 1 9.54 9.49v31.87h11.45a9.66 9.66 0 0 1 7.68 15.51l-40.58 53.19a9.6 9.6 0 0 1-7.66 3.81zm-37.14-61.15l37.14 48.68 37.14-48.68H141a5.68 5.68 0 0 1-5.68-5.68v-35.69H99.83V255a5.68 5.68 0 0 1-5.68 5.68H80.46z" transform="translate(-13.12)"/><path class="ancls-1" d="M217.17 0H68.3a4.9 4.9 0 0 0-3.47 1.44L14.56 51.71a4.91 4.91 0 0 0-1.44 3.47V281.8a4.91 4.91 0 0 0 4.88 4.9h56.15A2.33 2.33 0 0 0 76 283l-8.83-11.58a2.33 2.33 0 0 0-1.85-.92h-36V62h39.96a5.8 5.8 0 0 0 5.8-5.8V16.23h130.77v90a3.62 3.62 0 0 0 3.62 3.62h9a3.62 3.62 0 0 0 3.62-3.62V4.91A4.91 4.91 0 0 0 217.17 0zM218.45 208.21h-9a3.62 3.62 0 0 0-3.62 3.62v58.64h-36a2.33 2.33 0 0 0-1.85.92L159.2 283a2.33 2.33 0 0 0 1.8 3.7h56.12a4.91 4.91 0 0 0 4.91-4.91v-70a3.62 3.62 0 0 0-3.58-3.58z" transform="translate(-13.12)"/><path class="ancls-2" d="M83.53 138.94a5.43 5.43 0 0 1 1.37-3.86 5.16 5.16 0 0 1 4-1.47H101a20.4 20.4 0 0 1 7 1.16 16.12 16.12 0 0 1 5.54 3.31 15.51 15.51 0 0 1 3.66 5.15 16.29 16.29 0 0 1 1.33 6.69 15.88 15.88 0 0 1-1.37 6.72 15.64 15.64 0 0 1-3.7 5.08A16.18 16.18 0 0 1 108 165a19.29 19.29 0 0 1-6.6 1.13h-7.6v11.19a5.13 5.13 0 1 1-10.24 0v-38.38zm10.24 18.15h7a6.63 6.63 0 0 0 5.18-2.08 8 8 0 0 0 0-10.31 6.64 6.64 0 0 0-5.18-2.08h-7v14.47zM121.47 138.87a5.1 5.1 0 0 1 1.47-3.82 5.19 5.19 0 0 1 3.79-1.43h11.33a27.5 27.5 0 0 1 10.2 1.77 20.58 20.58 0 0 1 7.54 5.05 21.88 21.88 0 0 1 4.68 7.88 31.12 31.12 0 0 1 1.6 10.27 27.11 27.11 0 0 1-1.67 9.76 20.55 20.55 0 0 1-12.11 12.18 26.16 26.16 0 0 1-9.56 1.67h-11.87a7.35 7.35 0 0 1-1.77-.24 4.94 4.94 0 0 1-1.77-.85 4.62 4.62 0 0 1-1.33-1.6 5.23 5.23 0 0 1-.51-2.42v-38.22zm10.24 33.92h6.89a13.4 13.4 0 0 0 5.7-1.13 11 11 0 0 0 4-3.14 13.15 13.15 0 0 0 2.35-4.68 21.06 21.06 0 0 0 .75-5.73 22.08 22.08 0 0 0-.79-6 13.17 13.17 0 0 0-2.42-4.78 11 11 0 0 0-4.2-3.14 15.1 15.1 0 0 0-6.11-1.13h-6.21v29.76zM167 138.94a5.57 5.57 0 0 1 1.36-3.72 4.91 4.91 0 0 1 4-1.6h17.47a4.09 4.09 0 0 1 3.41 1.47 5.11 5.11 0 0 1 1.16 3.24 5.2 5.2 0 0 1-1.13 3.24 4.07 4.07 0 0 1-3.45 1.47h-12.59v10h10.58a4.59 4.59 0 0 1 3.69 1.43 4.81 4.81 0 0 1 1.23 3.21 5.06 5.06 0 0 1-1.23 3.28 4.48 4.48 0 0 1-3.69 1.5h-10.58v14.88a5.13 5.13 0 1 1-10.24 0v-38.4z" transform="translate(-13.12)"/></svg><view id="icon-notification" viewBox="0 0 32 32"/><svg id="aoLayer_1" width="32" height="32" viewBox="0 0 32 32"><style>.aost0{fill:#111}.aost1{fill:#f4b300}</style><circle class="aost0" cx="16" cy="16" r="16"/><path class="aost1" d="M24.7 22.2c0 2.1-5.4 3.1-8.6 3.1s-8.6-1-8.6-3.1c0-.3.1-.6.4-.9 2.9-6 2.2-8.8 3.8-11.1.7-1 1.6-1.6 2.9-1.9.1-.8.7-1.4 1.5-1.4s1.5.6 1.5 1.4c1.4.3 2.2.9 2.9 1.9 1.6 2.2.8 5.1 3.8 11.1.2.2.4.5.4.9zm-1.8-.6c-1.2-1.5-4.5-1.8-6.8-1.8-2.4 0-5.6.3-6.8 1.8 1.2 1.5 4.5 1.8 6.8 1.8 2.4 0 5.6-.3 6.8-1.8zm-8.2-.8c0-.2.9-.2 1.4-.2 1.1 0 1.4.1 1.4.2 0 .8-.6 1.5-1.4 1.5-.8.1-1.4-.6-1.4-1.5z"/></svg><view id="icon-pdf" viewBox="32 105.92 32 32"/><svg id="apLayer_1" width="32" height="32" viewBox="0 0 128 128" x="32" y="105.92"><style>.apst0{fill:#fff}.apst1{fill:#231f20}</style><path class="apst0" d="M104.9 79.7H41.8c-.8 0-1.4-.6-1.4-1.4V50.1c0-.8.6-1.4 1.4-1.4H105c.8 0 1.4.6 1.4 1.4v28.3c-.1.7-.7 1.3-1.5 1.3zM61.2 125.7c-1.2 0-2.2-.5-2.9-1.4L43 104.2c-.8-1.1-1-2.6-.4-3.8.6-1.3 1.9-2 3.3-2h4.3v-12c0-2 1.6-3.6 3.6-3.6h14.8c2 0 3.6 1.6 3.6 3.6v12h4.3c1.4 0 2.7.8 3.3 2 .6 1.2.5 2.7-.4 3.8l-15.3 20.1c-.7.9-1.8 1.4-2.9 1.4zm-14-23.1l14 18.4 14-18.4H70c-1.2 0-2.1-1-2.1-2.1V87H54.5v13.5c0 1.2-1 2.1-2.1 2.1h-5.2z"/><path class="apst0" d="M98.8 4.1H42.6c-.5 0-1 .2-1.3.5l-19 19c-.3.3-.5.8-.5 1.3v85.6c0 1 .8 1.9 1.9 1.9h21.2c.7 0 1.1-.8.7-1.4l-3.3-4.4c-.2-.2-.4-.3-.7-.3H27.9V27.5H43c1.2 0 2.2-1 2.2-2.2v-15h49.4v34c0 .8.6 1.4 1.4 1.4h3.4c.8 0 1.4-.6 1.4-1.4V6c-.1-1-1-1.9-2-1.9zM99.3 82.8h-3.4c-.8 0-1.4.6-1.4 1.4v22.2H81c-.3 0-.5.1-.7.3l-3.3 4.4c-.4.6 0 1.4.7 1.4h21.2c1 0 1.9-.8 1.9-1.9V84.2c-.1-.8-.7-1.4-1.5-1.4z"/><g><path class="apst1" d="M48.3 56.6c0-.6.2-1.1.5-1.5s.8-.6 1.5-.6h4.6c.9 0 1.8.1 2.6.4.8.3 1.5.7 2.1 1.3.6.5 1 1.2 1.4 1.9.3.8.5 1.6.5 2.5s-.2 1.8-.5 2.5-.8 1.4-1.4 1.9c-.6.5-1.3.9-2.1 1.2-.8.3-1.6.4-2.5.4h-2.9v4.2c0 .7-.2 1.2-.6 1.5-.4.3-.8.5-1.4.5-.6 0-1-.2-1.4-.5s-.6-.8-.6-1.5V56.6h.2zm3.9 6.9h2.6c.8 0 1.5-.3 2-.8s.7-1.2.7-1.9-.2-1.4-.7-1.9-1.1-.8-2-.8h-2.6v5.4zM62.7 56.6c0-.6.2-1.1.6-1.4.4-.4.8-.5 1.4-.5H69c1.4 0 2.7.2 3.9.7 1.1.4 2.1 1.1 2.8 1.9.8.8 1.4 1.8 1.8 3s.6 2.5.6 3.9-.2 2.6-.6 3.7-1 2-1.8 2.8-1.7 1.4-2.8 1.8c-1.1.4-2.3.6-3.6.6h-4.5c-.2 0-.4 0-.7-.1-.2-.1-.5-.2-.7-.3-.2-.2-.4-.4-.5-.6s-.2-.6-.2-.9V56.6zm3.8 12.8h2.6c.8 0 1.5-.1 2.2-.4.6-.3 1.1-.7 1.5-1.2s.7-1.1.9-1.8c.2-.7.3-1.4.3-2.2s-.1-1.6-.3-2.3c-.2-.7-.5-1.3-.9-1.8s-.9-.9-1.6-1.2c-.6-.3-1.4-.4-2.3-.4h-2.3l-.1 11.3zM79.9 56.6c0-.5.2-1 .5-1.4s.8-.6 1.5-.6h6.6c.6 0 1 .2 1.3.6.3.4.4.8.4 1.2s-.1.9-.4 1.2c-.3.4-.7.6-1.3.6h-4.7V62h4c.6 0 1.1.2 1.4.5.3.4.5.8.5 1.2s-.2.9-.5 1.2c-.3.4-.8.6-1.4.6h-4v5.6c0 .7-.2 1.2-.6 1.5s-.8.5-1.4.5-1-.2-1.4-.5-.6-.8-.6-1.5l.1-14.5z"/></g></svg><view id="icon-pdfs" viewBox="64 105.92 24.5 32"/><svg id="aqLayer_1" width="24.5" height="32" viewBox="0 0 49 64" x="64" y="105.92"><style>.aqst0{fill:#cb0606}.aqst1{fill:#fb8d8d}.aqst2{enable-background:new}.aqst3{fill:#fff}</style><path class="aqst0" d="M49 16.8v42.1c0 2.8-2.3 5.1-5.1 5.1H5.1C2.3 64 0 61.7 0 58.9V5.1C0 2.3 2.3 0 5.1 0h27L49 16.8z"/><path class="aqst1" d="M49 15.9V18H35.2c-2.9 0-4.2-2.3-4.2-5.2V0h2.1L49 15.9z"/><g class="aqst2"><path class="aqst3" d="M9.1 37.6c0-.5.1-1 .4-1.3.3-.3.7-.5 1.1-.5.4 0 .8.1 1 .3.3.2.4.6.5 1 .3-.5.7-.8 1.3-1.1.6-.2 1.1-.4 1.7-.4.9 0 1.6.2 2.2.5.6.4 1.2.8 1.6 1.4.4.6.7 1.3 1 2 .2.7.3 1.5.3 2.3 0 .7-.1 1.5-.4 2.2-.2.7-.6 1.3-1 1.9s-1 1-1.6 1.4c-.5.5-1.2.7-2 .7-.5 0-1-.1-1.5-.3-.5-.2-1-.5-1.4-.8v3.9c0 .5-.1 1-.4 1.3-.3.3-.7.5-1.1.5s-.9-.3-1.2-.6c-.3-.3-.4-.7-.4-1.3V37.6zm3.2 4.2c0 .4 0 .8.1 1.2.1.4.2.8.5 1.1.2.3.5.6.8.8.3.2.7.3 1.1.3.4 0 .8-.1 1.1-.3.3-.2.6-.4.8-.7.2-.3.4-.7.5-1 .1-.4.2-.8.2-1.1 0-.4-.1-.8-.2-1.1-.1-.4-.3-.7-.5-1-.2-.3-.5-.6-.8-.8-.3-.2-.7-.3-1.1-.3-.4 0-.8.1-1.1.3s-.6.4-.8.7c-.2.3-.4.6-.5 1 0 .1-.1.5-.1.9zM32.6 46.1c0 .5-.1 1-.4 1.3-.3.3-.7.5-1.1.5-.4 0-.8-.1-1-.3s-.4-.6-.5-1c-.3.5-.7.8-1.3 1.1-.5.2-1.1.4-1.6.4-.8 0-1.5-.2-2.2-.5-.6-.3-1.2-.8-1.6-1.4-.5-.6-.8-1.2-1-1.9-.2-.7-.4-1.4-.4-2.2 0-.8.1-1.5.3-2.3.2-.7.5-1.4 1-2 .4-.6 1-1.1 1.6-1.4.6-.4 1.4-.5 2.2-.5.6 0 1.1.1 1.6.3.5.2 1 .5 1.4.8v-4.3c0-.5.1-1 .4-1.3.3-.3.7-.5 1.1-.5s.9.2 1.1.5c.3.3.4.7.4 1.3v13.4zm-3.2-4.3c0-.4-.1-.8-.2-1.1s-.3-.7-.5-1c-.2-.3-.5-.5-.8-.7-.3-.2-.7-.3-1.1-.3-.4 0-.8.1-1.1.3-.3.2-.6.5-.8.8-.2.3-.4.7-.5 1-.1.4-.2.8-.2 1.1 0 .4.1.7.2 1.1.1.4.3.7.5 1 .2.3.5.6.8.7.3.2.7.3 1.1.3.4 0 .8-.1 1.1-.3.3-.2.6-.5.8-.8.2-.3.4-.7.5-1.1.2-.3.2-.6.2-1zM35.1 38.8h-.7c-.4 0-.8-.1-1-.4-.2-.2-.4-.6-.4-1s.1-.7.4-1c.3-.3.6-.4 1-.4h.7v-1.6c0-1.2.3-2.1.9-2.7.6-.6 1.4-.9 2.4-.9.3 0 .5 0 .8.1.3 0 .5.1.7.2.2.1.4.3.5.4.1.2.2.4.2.7 0 .9-.4 1.3-1.3 1.3h-.4c-.1 0-.2.1-.3.1s-.2.2-.2.3-.1.4-.1.7V36h1c.5 0 .9.1 1.2.3.3.2.5.6.5 1.1 0 .5-.2.9-.5 1.1-.3.2-.7.3-1.2.3h-1v7.3c0 .5-.1 1-.4 1.3-.3.3-.7.5-1.1.5-.5 0-.9-.2-1.1-.5-.3-.3-.4-.7-.4-1.3v-7.3z"/></g></svg><view id="icon-pdfs-hover" viewBox="88.5 105.92 24.5 32"/><svg id="arLayer_1" width="24.5" height="32" viewBox="0 0 49 64" x="88.5" y="105.92"><style>.arst0{fill:#f2f2f2}.arst1{fill:#d1d1d1}</style><path class="arst0" d="M28.8 39.6c-.2-.3-.5-.5-.8-.7-.3-.2-.7-.3-1.1-.3-.4 0-.8.1-1.1.3-.3.2-.6.5-.8.8-.2.3-.4.7-.5 1-.1.4-.2.8-.2 1.1 0 .4.1.7.2 1.1.1.4.3.7.5 1 .2.3.5.6.8.7.3.2.7.3 1.1.3.4 0 .8-.1 1.1-.3.3-.2.6-.5.8-.8.2-.3.4-.7.5-1.1.1-.4.1-.8.1-1.2 0-.4-.1-.8-.2-1.1s-.2-.5-.4-.8z"/><path class="arst0" d="M32.1 0h-27C2.3 0 0 2.3 0 5.1v53.8C0 61.7 2.3 64 5.1 64h38.8c2.8 0 5.1-2.3 5.1-5.1V16.8L32.1 0zm-12 44.2c-.2.7-.6 1.3-1 1.9s-1 1-1.6 1.4c-.8.3-1.5.5-2.3.5-.5 0-1-.1-1.5-.3-.5-.2-1-.5-1.4-.8v3.9c0 .5-.1 1-.4 1.3-.3.3-.7.5-1.1.5s-.9-.3-1.2-.6c-.3-.3-.4-.7-.4-1.3V37.6c0-.5.1-1 .4-1.3.3-.3.7-.5 1.1-.5.4 0 .8.1 1 .3.3.2.4.6.5 1 .3-.5.7-.8 1.3-1.1.6-.2 1.1-.4 1.7-.4.9 0 1.6.2 2.2.5.6.4 1.2.8 1.6 1.4.4.6.7 1.3 1 2 .2.7.3 1.5.3 2.3.1 1 0 1.7-.2 2.4zm12.5 1.9c0 .5-.1 1-.4 1.3-.3.3-.7.5-1.1.5-.4 0-.8-.1-1-.3s-.4-.6-.5-1c-.3.5-.7.8-1.3 1.1-.5.2-1.1.4-1.6.4-.8 0-1.5-.2-2.2-.5-.6-.3-1.2-.8-1.6-1.4-.5-.6-.8-1.2-1-1.9-.2-.7-.4-1.4-.4-2.2 0-.8.1-1.5.3-2.3.2-.7.5-1.4 1-2 .4-.6 1-1.1 1.6-1.4.6-.4 1.4-.5 2.2-.5.6 0 1.1.1 1.6.3.5.2 1 .5 1.4.8v-4.3c0-.5.1-1 .4-1.3.3-.3.7-.5 1.1-.5s.9.2 1.1.5c.3.3.4.7.4 1.3v13.4zm7.8-7.6c-.3.2-.7.3-1.2.3h-1v7.3c0 .5-.1 1-.4 1.3-.3.3-.7.5-1.1.5-.5 0-.9-.2-1.1-.5-.3-.3-.4-.7-.4-1.3v-7.3h-.7c-.4 0-.8-.1-1-.4-.2-.2-.4-.6-.4-1s.1-.7.4-1c.3-.3.6-.4 1-.4h.7v-1.6c0-1.2.3-2.1.9-2.7.6-.6 1.4-.9 2.4-.9.3 0 .5 0 .8.1.3 0 .5.1.7.2.2.1.4.3.5.4.1.2.2.4.2.7 0 .9-.4 1.3-1.3 1.3H39c-.1 0-.2.1-.3.1s-.2.2-.2.3-.1.4-.1.7V36h1c.5 0 .9.1 1.2.3.3.2.5.6.5 1.1-.2.5-.4.9-.7 1.1z"/><path class="arst0" d="M16.6 39.7c-.2-.3-.5-.6-.8-.8-.3-.2-.7-.3-1.1-.3-.4 0-.8.1-1.1.3s-.6.4-.8.7c-.2.3-.4.6-.5 1-.1.4-.2.8-.2 1.1 0 .4 0 .8.1 1.2.1.4.2.8.5 1.1.2.3.5.6.8.8.3.2.7.3 1.1.3.4 0 .8-.1 1.1-.3.3-.2.6-.4.8-.7.2-.3.4-.7.5-1 .1-.4.2-.8.2-1.1 0-.4-.1-.8-.2-1.1 0-.5-.1-.9-.4-1.2z"/><path class="arst1" d="M49 15.9V18H35.2c-2.9 0-4.2-2.3-4.2-5.2V0h2.1L49 15.9z"/></svg><view id="icon-photo" viewBox="142.75 0 32 32"/><svg id="asLayer_1" width="32" height="32" viewBox="0 0 128 128" x="142.75"><style>.asst0{fill:#546e7a}.asst1{fill:#ffa000}.asst2{fill:#b0bec5}</style><path class="asst0" d="M104.9 28.9H23.1c-3.2 0-5.8 2.6-5.8 5.8v58.5c0 3.2 2.6 5.8 5.8 5.8H105c3.2 0 5.8-2.6 5.8-5.8V34.8c0-3.3-2.6-5.9-5.9-5.9zm0 64.3H23.1V34.8H105v58.4z"/><path class="asst1" d="M40.6 46.5c3.2 0 5.8 2.6 5.8 5.8s-2.6 5.8-5.8 5.8-5.8-2.6-5.8-5.8 2.6-5.8 5.8-5.8m0-5.9c-6.5 0-11.7 5.2-11.7 11.7S34.2 64 40.6 64s11.7-5.2 11.7-11.7-5.2-11.7-11.7-11.7z"/><path class="asst2" d="M37.7 87.4c-.7 0-1.5-.3-2.1-.9-1.1-1.1-1.1-3 0-4.1l17.5-17.5c.9-.9 2.3-1.1 3.4-.5l9.5 4.8 16.1-21.4c.6-.8 1.5-1.2 2.4-1.2 1 0 1.8.5 2.4 1.3l11.7 17.5c.9 1.3.5 3.2-.8 4.1-1.3.9-3.2.5-4.1-.8l-9.4-14.1-15 19.9c-.8 1.1-2.4 1.5-3.6.9l-9.8-4.9-16.1 16c-.6.6-1.4.9-2.1.9z"/></svg><view id="icon-pin" viewBox="142.75 32 32 32"/><svg width="32" height="32" viewBox="0 0 85.039 85.039" x="142.75" y="32"><path fill="#8194A2" d="M42.52 1.831c-18.563 0-27.742 12.939-27.742 28.9 0 15.96 27.742 52.477 27.742 52.477s27.742-36.517 27.742-52.477c0-15.961-9.178-28.9-27.742-28.9zm0 41.614c-8.236 0-14.912-6.676-14.912-14.91 0-8.236 6.676-14.913 14.912-14.913s14.912 6.677 14.912 14.913c0 8.234-6.676 14.91-14.912 14.91z"/></svg><view id="icon-play-circle" viewBox="120.5 52 20 20"/><svg height="20" viewBox="0 0 20 20" width="20" x="120.5" y="52"><title/><path d="M8 14.5l6-4.5-6-4.5v9zM10 0C4.5 0 0 4.5 0 10s4.5 10 10 10 10-4.5 10-10S15.5 0 10 0zm0 18c-4.4 0-8-3.6-8-8s3.6-8 8-8 8 3.6 8 8-3.6 8-8 8z" fill="#000" fill-rule="evenodd"/></svg><view id="icon-play-circle-white" viewBox="120.5 32 20 20"/><svg id="avLayer_1" viewBox="0 0 20 20" width="20" height="20" x="120.5" y="32"><style>.avst0{fill:#fff}</style><title/><g id="avPage-1"><g id="avIcons-AV" transform="translate(-168 -85)"><g id="avplay-circle-outline" transform="translate(168 85)"><path id="avShape" class="avst0" d="M8 14.5l6-4.5-6-4.5v9zM10 0C4.5 0 0 4.5 0 10s4.5 10 10 10 10-4.5 10-10S15.5 0 10 0zm0 18c-4.4 0-8-3.6-8-8s3.6-8 8-8 8 3.6 8 8-3.6 8-8 8z"/></g></g></g></svg><view id="icon-ppts" viewBox="113 105.92 24.5 32"/><svg id="awLayer_1" width="24.5" height="32" viewBox="0 0 49 64" x="113" y="105.92"><style>.awst0{fill:#e28500}.awst1{fill:#ffcf8b}.awst2{enable-background:new}.awst3{fill:#fff}</style><path class="awst0" d="M49 16.8v42.1c0 2.8-2.3 5.1-5.1 5.1H5.1C2.3 64 0 61.7 0 58.9V5.1C0 2.3 2.3 0 5.1 0h27L49 16.8z"/><path class="awst1" d="M49 15.9V18H35.2c-2.9 0-4.2-2.3-4.2-5.2V0h2.1L49 15.9z"/><g class="awst2"><path class="awst3" d="M9.1 37.6c0-.5.1-1 .4-1.3.3-.3.7-.5 1.1-.5.4 0 .8.1 1 .3.3.2.4.6.5 1 .3-.5.7-.8 1.3-1.1.6-.2 1.1-.4 1.7-.4.9 0 1.6.2 2.2.5.6.4 1.2.8 1.6 1.4.4.6.7 1.3 1 2 .2.7.3 1.5.3 2.3 0 .7-.1 1.5-.4 2.2-.2.7-.6 1.3-1 1.9s-1 1-1.6 1.4c-.5.5-1.2.7-2 .7-.5 0-1-.1-1.5-.3-.5-.2-1-.5-1.4-.8v3.9c0 .5-.1 1-.4 1.3-.3.3-.7.5-1.1.5s-.9-.3-1.2-.6c-.3-.3-.4-.7-.4-1.3V37.6zm3.2 4.2c0 .4 0 .8.1 1.2.1.4.2.8.5 1.1.2.3.5.6.8.8.3.2.7.3 1.1.3.4 0 .8-.1 1.1-.3.3-.2.6-.4.8-.7.2-.3.4-.7.5-1 .1-.4.2-.8.2-1.1 0-.4-.1-.8-.2-1.1-.1-.4-.3-.7-.5-1-.2-.3-.5-.6-.8-.8-.3-.2-.7-.3-1.1-.3-.4 0-.8.1-1.1.3s-.6.4-.8.7c-.2.3-.4.6-.5 1 0 .1-.1.5-.1.9zM21.8 37.6c0-.5.1-1 .4-1.3.3-.3.7-.5 1.1-.5.4 0 .8.1 1 .3.3.2.4.6.5 1 .3-.5.7-.8 1.3-1.1.6-.2 1.1-.4 1.7-.4.9 0 1.6.2 2.2.5.6.4 1.2.8 1.6 1.4.4.6.7 1.3 1 2 .2.7.3 1.5.3 2.3 0 .7-.1 1.5-.4 2.2-.2.7-.6 1.3-1 1.9-.5.6-1 1-1.6 1.4-.6.3-1.4.5-2.2.5-.5 0-1-.1-1.5-.3-.5-.2-1-.5-1.4-.8v3.9c0 .5-.1 1-.4 1.3-.3.3-.7.5-1.1.5s-.9-.2-1.1-.5c-.3-.3-.4-.7-.4-1.3v-13zm3.1 4.2c0 .4 0 .8.1 1.2.1.4.2.8.5 1.1.2.3.5.6.8.8.3.2.7.3 1.1.3.4 0 .8-.1 1.1-.3s.6-.4.8-.7c.2-.3.4-.7.5-1 .1-.4.2-.8.2-1.1 0-.4-.1-.8-.2-1.1-.1-.4-.3-.7-.5-1-.2-.3-.5-.6-.8-.8-.3-.2-.7-.3-1.1-.3-.4 0-.8.1-1.1.3-.3.2-.6.4-.8.7-.2.3-.4.6-.5 1s-.1.5-.1.9zM35.2 38.8h-.7c-.4 0-.8-.1-1-.4-.2-.2-.4-.6-.4-1s.1-.7.4-1c.3-.3.6-.4 1-.4h.7v-1.9c0-.5.1-1 .4-1.3.3-.3.7-.5 1.1-.5.5 0 .9.2 1.1.5.3.3.4.7.4 1.3V36h.9c.4 0 .8.1 1.1.3.3.2.5.6.5 1.1 0 .5-.2.9-.5 1.1-.3.2-.7.3-1.1.3h-.9v7.3c0 .5-.1 1-.4 1.3-.3.3-.7.5-1.1.5-.5 0-.9-.2-1.1-.5-.3-.3-.4-.7-.4-1.3v-7.3z"/></g></svg><view id="icon-ppts-hover" viewBox="0 137.92000000000002 24.5 32"/><svg id="axLayer_1" width="24.5" height="32" viewBox="0 0 49 64" y="137.92000000000002"><style>.axst0{fill:#f2f2f2}.axst1{fill:#d2d2d2}</style><path class="axst0" d="M29.3 39.7c-.2-.3-.5-.6-.8-.8-.3-.2-.7-.3-1.1-.3-.4 0-.8.1-1.1.3-.3.2-.6.4-.8.7-.2.3-.4.6-.5 1s-.2.8-.2 1.1c0 .4 0 .8.1 1.2.1.4.2.8.5 1.1.2.3.5.6.8.8.3.2.7.3 1.1.3.4 0 .8-.1 1.1-.3s.6-.4.8-.7c.2-.3.4-.7.5-1 .1-.4.2-.8.2-1.1 0-.4-.1-.8-.2-1.1-.1-.5-.2-.9-.4-1.2z"/><path class="axst0" d="M32.1 0h-27C2.3 0 0 2.3 0 5v54c0 2.8 2.3 5.1 5.1 5H44c2.8 0 5.1-2.3 5.1-5.1V16.8L32.1 0zm-12 44.2c-.2.7-.6 1.3-1 1.9-.5.6-1 1-1.6 1.4-.8.3-1.5.5-2.3.5-.5 0-1-.1-1.5-.3-.5-.2-1-.5-1.4-.8v3.9c0 .5-.1 1-.4 1.3-.3.3-.7.5-1.1.5-.5 0-.9-.2-1.1-.5-.3-.3-.4-.7-.4-1.3V37.6c0-.5.1-1 .4-1.3.3-.3.7-.5 1.1-.5.4 0 .8.1 1 .3.3.2.4.6.5 1 .3-.5.7-.8 1.3-1.1.6-.2 1.1-.4 1.7-.4.9 0 1.6.2 2.2.5.6.4 1.2.8 1.6 1.4.4.6.7 1.3 1 2 .2.7.3 1.5.3 2.3 0 1-.1 1.7-.3 2.4zm12.6 0c-.2.7-.6 1.3-1 1.9-.5.6-1 1-1.6 1.4-.6.3-1.4.5-2.2.5-.5 0-1-.1-1.5-.3-.5-.2-1-.5-1.4-.8v3.9c0 .5-.1 1-.4 1.3-.3.3-.7.5-1.1.5-.5 0-.9-.2-1.1-.5-.3-.3-.4-.7-.4-1.3V37.6c0-.5.1-1 .4-1.3.3-.3.7-.5 1.1-.5.4 0 .8.1 1 .3.3.2.4.6.5 1 .3-.5.7-.8 1.3-1.1.6-.2 1.1-.4 1.7-.4.9 0 1.6.2 2.2.5.6.4 1.2.8 1.6 1.4.4.6.7 1.3 1 2 .2.7.3 1.5.3 2.3 0 1-.2 1.7-.4 2.4zm7.6-5.7c-.3.2-.7.3-1.1.3h-.9v7.3c0 .5-.1 1-.4 1.3-.3.3-.7.5-1.1.5-.5 0-.9-.2-1.1-.5-.3-.3-.4-.7-.4-1.3v-7.3h-.7c-.4 0-.8-.1-1-.4-.2-.2-.4-.6-.4-1s.1-.7.4-1c.3-.3.6-.4 1-.4h.7v-1.9c0-.5.1-1 .4-1.3.3-.3.7-.5 1.1-.5.5 0 .9.2 1.1.5.3.3.4.7.4 1.3V36h.9c.4 0 .8.1 1.1.3.3.2.5.6.5 1.1 0 .5-.2.9-.5 1.1z"/><path class="axst0" d="M16.6 39.7c-.2-.3-.5-.6-.8-.8-.3-.2-.7-.3-1.1-.3-.4 0-.8.1-1.1.3-.3.2-.6.4-.8.7-.2.3-.4.6-.5 1s-.2.8-.2 1.1c0 .4 0 .8.1 1.2.1.4.2.8.5 1.1.2.3.5.6.8.8.3.2.7.3 1.1.3.4 0 .8-.1 1.1-.3s.6-.4.8-.7c.2-.3.4-.7.5-1 .1-.4.2-.8.2-1.1 0-.4-.1-.8-.2-1.1 0-.5-.2-.9-.4-1.2z"/><title>ppts-hover</title><path class="axst1" d="M49 15.9V18H35.2c-2.9 0-4.2-2.3-4.2-5.2V0h2.1L49 15.9z"/></svg><view id="icon-tv" viewBox="142.75 96 32 32"/><svg height="32" viewBox="0 0 128 128" width="32" x="142.75" y="96"><path d="M104 0H24C10.746 0 0 10.742 0 24v48c0 13.258 10.746 24 24 24h24c0 4.414-3.59 8-8 8h-4c-6.629 0-12 5.375-12 12s5.371 12 12 12h56c6.629 0 12-5.375 12-12s-5.371-12-12-12h-4c-4.41 0-8-3.586-8-8h24c13.254 0 24-10.742 24-24V24c0-13.258-10.746-24-24-24zM88 112h4c2.207 0 4 1.797 4 4s-1.793 4-4 4H36c-2.207 0-4-1.797-4-4s1.793-4 4-4h4c8.836 0 16-7.164 16-16h16c0 8.836 7.164 16 16 16zm32-40c0 8.82-7.176 16-16 16H24c-8.824 0-16-7.18-16-16V24c0-8.82 7.176-16 16-16h80c8.824 0 16 7.18 16 16v48z" fill="#B0BEC5"/><path d="M104 24v48H24V24h80m0-8H24c-4.418 0-8 3.578-8 8v48c0 4.422 3.582 8 8 8h80c4.418 0 8-3.578 8-8V24c0-4.422-3.582-8-8-8z" fill="#03A9F4"/></svg><view id="icon-youtube" viewBox="142.75 64 32 32"/><svg height="32" viewBox="0 0 100 100" width="32" shape-rendering="geometricPrecision" text-rendering="geometricPrecision" image-rendering="optimizeQuality" fill-rule="evenodd" clip-rule="evenodd" x="142.75" y="64"><defs><style>.azfil0{fill:#008dd2}</style></defs><path class="azfil0" d="M87.5 50v-3.043c0-6.476-.751-12.949-.751-12.949s-.732-5.516-2.98-7.946c-2.854-3.183-6.05-3.203-7.515-3.382-10.495-.814-26.238-.814-26.238-.814h-.035s-15.742 0-26.237.814c-1.465.18-4.658.2-7.514 3.383-2.246 2.429-2.98 7.945-2.98 7.945s-.75 6.472-.75 12.947v6.09c0 6.474.75 12.947.75 12.947s.734 5.516 2.98 7.945c2.856 3.184 6.049 3.204 7.514 3.383 10.495.814 26.237.814 26.237.814h.035s15.743 0 26.238-.814c1.465-.18 4.661-.2 7.514-3.382 2.249-2.43 2.981-7.946 2.981-7.946s.75-6.473.75-12.949V50zM40.634 34.375v31.25L65.625 50 40.634 34.375zm43.005-.036c-.253-1.719-1.078-4.961-2.181-6.172-1.702-1.868-3.16-2.142-5.515-2.378-8.6-.86-17.294-.798-25.927-.798h-.035c-8.633 0-17.325-.061-25.926.798-2.355.236-3.812.509-5.515 2.378-1.116 1.226-1.948 4.538-2.19 6.238a111.695 111.695 0 0 0-.725 12.55v6.09c0 4.11.252 8.456.725 12.55.242 1.7 1.074 5.012 2.19 6.238 1.703 1.87 3.16 2.142 5.515 2.378 8.601.86 17.293.798 25.926.798h.035c8.633 0 17.326.061 25.927-.798 2.354-.236 3.813-.51 5.515-2.378 1.117-1.226 1.95-4.538 2.191-6.238.473-4.096.726-8.44.726-12.552v-6.086c0-2.886-.144-5.785-.366-8.662-.102-1.315-.276-2.65-.37-3.956z" id="azEbene_x0020_1"/></svg><view id="icon-zips" viewBox="32 64 24.5 32"/><svg id="baLayer_1" width="24.5" height="32" viewBox="0 0 49 64" x="32" y="64"><style>.bast0{fill:#435055}.bast1{fill:#8f9ca1}.bast2{enable-background:new}.bast3{fill:#fff}</style><path class="bast0" d="M49 16.8v42.1c0 2.8-2.3 5.1-5.1 5.1H5.1C2.3 64 0 61.7 0 58.9V5.1C0 2.3 2.3 0 5.1 0h27L49 16.8z"/><path class="bast1" d="M49 15.9V18H35.2c-2.9 0-4.2-2.3-4.2-5.2V0h2.1L49 15.9z"/><g class="bast2"><path class="bast3" d="M16 38.8h-3.7c-.4 0-.7-.1-1-.4-.3-.2-.4-.6-.4-1s.1-.8.4-1c.3-.2.6-.4 1-.4h7.5c.1 0 .2.1.3.1l.3.3c.1.1.1.3.1.5s0 .4-.1.5c-.1.1-.1.3-.3.4l-5 7h4.2c.4 0 .7.1 1 .4.3.2.4.6.4 1s-.1.8-.4 1c-.3.2-.6.4-1 .4H12c-.4 0-.7-.1-.9-.3-.3-.2-.4-.4-.4-.8 0-.2 0-.3.1-.5s.1-.3.2-.4l5-6.8zM23.5 31.1c.2 0 .5 0 .7.1.2.1.4.2.6.4.2.2.3.3.4.5.1.2.1.4.1.7 0 .5-.2.9-.5 1.3s-.8.5-1.3.5c-.2 0-.5-.1-.7-.2-.2-.1-.4-.2-.6-.4-.2-.2-.3-.4-.4-.6-.1-.2-.1-.5-.1-.7 0-.2 0-.4.1-.6.1-.2.2-.4.4-.6.2-.2.4-.3.6-.4.2.1.4 0 .7 0zm-1.6 6.5c0-.5.1-1 .4-1.3.3-.3.7-.5 1.1-.5s.9.2 1.1.5c.3.3.4.7.4 1.3V46c0 .5-.1 1-.4 1.3-.3.3-.7.5-1.1.5s-.9-.2-1.1-.5c-.3-.3-.4-.7-.4-1.3v-8.4zM26.8 37.6c0-.5.1-1 .4-1.3.3-.3.7-.5 1.1-.5.4 0 .8.1 1 .3.3.2.4.6.5 1 .3-.5.7-.8 1.3-1.1.6-.2 1.1-.4 1.7-.4.9 0 1.6.2 2.2.5.6.4 1.2.8 1.6 1.4.4.6.7 1.3 1 2 .2.7.3 1.5.3 2.3 0 .7-.1 1.5-.4 2.2-.2.7-.6 1.3-1 1.9-.5.6-1 1-1.6 1.4-.6.3-1.4.5-2.2.5-.5 0-1-.1-1.5-.3-.5-.2-1-.5-1.4-.8v3.9c0 .5-.1 1-.4 1.3-.3.3-.7.5-1.1.5-.5 0-.9-.2-1.1-.5-.3-.3-.4-.7-.4-1.3v-13zm3.2 4.2c0 .4 0 .8.1 1.2.1.4.2.8.5 1.1.2.3.5.6.8.8.3.2.7.3 1.1.3.4 0 .8-.1 1.1-.3s.6-.4.8-.7c.2-.3.4-.7.5-1 .1-.4.2-.8.2-1.1 0-.4-.1-.8-.2-1.1-.1-.4-.3-.7-.5-1-.2-.3-.5-.6-.8-.8-.3-.2-.7-.3-1.1-.3-.4 0-.8.1-1.1.3-.3.2-.6.4-.8.7-.2.3-.4.6-.5 1s-.1.5-.1.9z"/></g></svg><view id="icon-zips-hover" viewBox="32 0 24.5 32"/><svg id="bbLayer_1" width="24.5" height="32" viewBox="0 0 49 64" x="32"><style>.bbst0{fill:#f2f2f2}.bbst1{fill:#d2d2d2}</style><path class="bbst0" d="M34.3 39.7c-.2-.3-.5-.6-.8-.8-.3-.2-.7-.3-1.1-.3-.4 0-.8.1-1.1.3-.3.2-.6.4-.8.7-.2.3-.4.6-.5 1v1.2c0 .4 0 .8.1 1.2.1.4.2.8.5 1.1s.5.6.8.8c.3.2.7.3 1.1.3.4 0 .8-.1 1.1-.3.3-.2.6-.4.8-.7.2-.3.4-.7.5-1 .1-.4.2-.8.2-1.1 0-.4-.1-.8-.2-1.1-.2-.6-.4-1-.6-1.3z"/><path class="bbst0" d="M32.1 0h-27C2.3 0 0 2.3 0 5.1V59c0 2.7 2.3 5 5.1 5h38.8c2.8 0 5.1-2.3 5.1-5.1V16.8L32.1 0zM20.4 47.4c-.3.2-.6.4-1 .4H12c-.4 0-.7-.1-.9-.3-.3-.2-.4-.4-.4-.8 0-.2 0-.3.1-.5s.1-.3.2-.4l5-7h-3.7c-.4 0-.7-.1-1-.4-.3-.2-.4-.6-.4-1s.1-.8.4-1c.3-.2.6-.4 1-.4h7.5c.1 0 .2.1.3.1l.3.3c.1.1.1.3.1.5s0 .4-.1.5c-.1.1-.1.3-.3.4l-5 7h4.2c.4 0 .7.1 1 .4.3.2.4.6.4 1 .1.6 0 .9-.3 1.2zm4.7-1.3c0 .5-.1 1-.4 1.3-.3.3-.7.5-1.1.5s-.9-.2-1.1-.5c-.3-.3-.4-.7-.4-1.3v-8.4c0-.5.1-1 .4-1.3.3-.3.7-.5 1.1-.5s.9.2 1.1.5c.3.3.4.7.4 1.3v8.4zm-.4-11.9c-.3.4-.8.5-1.3.5-.2 0-.5-.1-.7-.2-.2-.1-.4-.2-.6-.4-.2-.2-.3-.4-.4-.6-.1-.2-.1-.5-.1-.7 0-.2 0-.4.1-.6.1-.2.2-.4.4-.6.2-.2.4-.3.6-.4.2-.1.4-.1.7-.1.2 0 .5 0 .7.1.2.1.4.2.6.4.2.2.3.3.4.5s.1.4.1.7c.1.6-.1 1-.5 1.4zm13 10c-.2.7-.6 1.3-1 1.9-.5.6-1 1-1.7 1.4-.6.3-1.4.5-2.2.5-.5 0-1-.1-1.5-.3-.5-.2-1-.5-1.4-.8v3.9c0 .5-.1 1-.4 1.3-.3.3-.7.5-1.1.5-.5 0-.9-.2-1.1-.5-.3-.3-.4-.7-.4-1.3V37.6c0-.5.1-1 .4-1.3.3-.3.7-.5 1.1-.5.4 0 .8.1 1 .3s.4.6.5 1c.3-.5.7-.8 1.3-1.1.6-.2 1.1-.4 1.7-.4.9 0 1.6.2 2.2.5.6.4 1.2.8 1.6 1.4.4.6.7 1.3 1 2s.3 1.5.3 2.3c.1 1 0 1.7-.3 2.4z"/><title>zips-hover</title><path class="bbst1" d="M49 15.9V18H35.2c-2.9 0-4.2-2.3-4.2-5.2V0h2.1L49 15.9z"/></svg></svg>