<svg id="apLayer_1" xmlns="http://www.w3.org/2000/svg" width="32" height="32" viewBox="0 0 128 128"><style>.apst0{fill:#fff}.apst1{fill:#231f20}</style><path class="apst0" d="M104.9 79.7H41.8c-.8 0-1.4-.6-1.4-1.4V50.1c0-.8.6-1.4 1.4-1.4H105c.8 0 1.4.6 1.4 1.4v28.3c-.1.7-.7 1.3-1.5 1.3zM61.2 125.7c-1.2 0-2.2-.5-2.9-1.4L43 104.2c-.8-1.1-1-2.6-.4-3.8.6-1.3 1.9-2 3.3-2h4.3v-12c0-2 1.6-3.6 3.6-3.6h14.8c2 0 3.6 1.6 3.6 3.6v12h4.3c1.4 0 2.7.8 3.3 2 .6 1.2.5 2.7-.4 3.8l-15.3 20.1c-.7.9-1.8 1.4-2.9 1.4zm-14-23.1l14 18.4 14-18.4H70c-1.2 0-2.1-1-2.1-2.1V87H54.5v13.5c0 1.2-1 2.1-2.1 2.1h-5.2z"/><path class="apst0" d="M98.8 4.1H42.6c-.5 0-1 .2-1.3.5l-19 19c-.3.3-.5.8-.5 1.3v85.6c0 1 .8 1.9 1.9 1.9h21.2c.7 0 1.1-.8.7-1.4l-3.3-4.4c-.2-.2-.4-.3-.7-.3H27.9V27.5H43c1.2 0 2.2-1 2.2-2.2v-15h49.4v34c0 .8.6 1.4 1.4 1.4h3.4c.8 0 1.4-.6 1.4-1.4V6c-.1-1-1-1.9-2-1.9zM99.3 82.8h-3.4c-.8 0-1.4.6-1.4 1.4v22.2H81c-.3 0-.5.1-.7.3l-3.3 4.4c-.4.6 0 1.4.7 1.4h21.2c1 0 1.9-.8 1.9-1.9V84.2c-.1-.8-.7-1.4-1.5-1.4z"/><g><path class="apst1" d="M48.3 56.6c0-.6.2-1.1.5-1.5s.8-.6 1.5-.6h4.6c.9 0 1.8.1 2.6.4.8.3 1.5.7 2.1 1.3.6.5 1 1.2 1.4 1.9.3.8.5 1.6.5 2.5s-.2 1.8-.5 2.5-.8 1.4-1.4 1.9c-.6.5-1.3.9-2.1 1.2-.8.3-1.6.4-2.5.4h-2.9v4.2c0 .7-.2 1.2-.6 1.5-.4.3-.8.5-1.4.5-.6 0-1-.2-1.4-.5s-.6-.8-.6-1.5V56.6h.2zm3.9 6.9h2.6c.8 0 1.5-.3 2-.8s.7-1.2.7-1.9-.2-1.4-.7-1.9-1.1-.8-2-.8h-2.6v5.4zM62.7 56.6c0-.6.2-1.1.6-1.4.4-.4.8-.5 1.4-.5H69c1.4 0 2.7.2 3.9.7 1.1.4 2.1 1.1 2.8 1.9.8.8 1.4 1.8 1.8 3s.6 2.5.6 3.9-.2 2.6-.6 3.7-1 2-1.8 2.8-1.7 1.4-2.8 1.8c-1.1.4-2.3.6-3.6.6h-4.5c-.2 0-.4 0-.7-.1-.2-.1-.5-.2-.7-.3-.2-.2-.4-.4-.5-.6s-.2-.6-.2-.9V56.6zm3.8 12.8h2.6c.8 0 1.5-.1 2.2-.4.6-.3 1.1-.7 1.5-1.2s.7-1.1.9-1.8c.2-.7.3-1.4.3-2.2s-.1-1.6-.3-2.3c-.2-.7-.5-1.3-.9-1.8s-.9-.9-1.6-1.2c-.6-.3-1.4-.4-2.3-.4h-2.3l-.1 11.3zM79.9 56.6c0-.5.2-1 .5-1.4s.8-.6 1.5-.6h6.6c.6 0 1 .2 1.3.6.3.4.4.8.4 1.2s-.1.9-.4 1.2c-.3.4-.7.6-1.3.6h-4.7V62h4c.6 0 1.1.2 1.4.5.3.4.5.8.5 1.2s-.2.9-.5 1.2c-.3.4-.8.6-1.4.6h-4v5.6c0 .7-.2 1.2-.6 1.5s-.8.5-1.4.5-1-.2-1.4-.5-.6-.8-.6-1.5l.1-14.5z"/></g></svg>