<svg height="32" viewBox="0 0 128 128" width="32" xmlns="http://www.w3.org/2000/svg"><path d="M128 120V24c0-4.422-3.582-8-8-8H88v8h32v96H8V24h32v-8H8c-4.422 0-8 3.578-8 8v96c0 4.422 3.578 8 8 8h112c4.418 0 8-3.578 8-8z" fill="#B0BEC5"/><path d="M40 48a7.97 7.97 0 0 1 2.344-5.656 7.998 7.998 0 0 1 11.313 0L56 44.688V16c0-4.422 3.582-8 8-8s8 3.578 8 8v28.688l2.344-2.344a7.998 7.998 0 0 1 11.313 0C87.219 43.906 88 45.953 88 48s-.781 4.094-2.344 5.656l-16 16a7.998 7.998 0 0 1-11.313 0l-16-16A7.974 7.974 0 0 1 40 48m-8 0c0 4.273 1.664 8.289 4.688 11.313l16 16C55.711 78.336 59.727 80 64 80s8.289-1.664 11.313-4.688l16-16C94.336 56.289 96 52.273 96 48s-1.664-8.289-4.688-11.313a15.954 15.954 0 0 0-11.313-4.68V16c0-8.82-7.176-16-16-16-8.82 0-16 7.18-16 16v16.008a15.956 15.956 0 0 0-11.313 4.68A15.894 15.894 0 0 0 32 48z" fill="#03A9F4"/><path d="M104 104H24v-8h80v8m8 8V88H16v24h96z" fill="#90CAF9"/></svg>