<svg id="baLayer_1" xmlns="http://www.w3.org/2000/svg" width="24.5" height="32" viewBox="0 0 49 64"><style>.bast0{fill:#435055}.bast1{fill:#8f9ca1}.bast2{enable-background:new}.bast3{fill:#fff}</style><path class="bast0" d="M49 16.8v42.1c0 2.8-2.3 5.1-5.1 5.1H5.1C2.3 64 0 61.7 0 58.9V5.1C0 2.3 2.3 0 5.1 0h27L49 16.8z"/><path class="bast1" d="M49 15.9V18H35.2c-2.9 0-4.2-2.3-4.2-5.2V0h2.1L49 15.9z"/><g class="bast2"><path class="bast3" d="M16 38.8h-3.7c-.4 0-.7-.1-1-.4-.3-.2-.4-.6-.4-1s.1-.8.4-1c.3-.2.6-.4 1-.4h7.5c.1 0 .2.1.3.1l.3.3c.1.1.1.3.1.5s0 .4-.1.5c-.1.1-.1.3-.3.4l-5 7h4.2c.4 0 .7.1 1 .4.3.2.4.6.4 1s-.1.8-.4 1c-.3.2-.6.4-1 .4H12c-.4 0-.7-.1-.9-.3-.3-.2-.4-.4-.4-.8 0-.2 0-.3.1-.5s.1-.3.2-.4l5-6.8zM23.5 31.1c.2 0 .5 0 .7.1.2.1.4.2.6.4.2.2.3.3.4.5.1.2.1.4.1.7 0 .5-.2.9-.5 1.3s-.8.5-1.3.5c-.2 0-.5-.1-.7-.2-.2-.1-.4-.2-.6-.4-.2-.2-.3-.4-.4-.6-.1-.2-.1-.5-.1-.7 0-.2 0-.4.1-.6.1-.2.2-.4.4-.6.2-.2.4-.3.6-.4.2.1.4 0 .7 0zm-1.6 6.5c0-.5.1-1 .4-1.3.3-.3.7-.5 1.1-.5s.9.2 1.1.5c.3.3.4.7.4 1.3V46c0 .5-.1 1-.4 1.3-.3.3-.7.5-1.1.5s-.9-.2-1.1-.5c-.3-.3-.4-.7-.4-1.3v-8.4zM26.8 37.6c0-.5.1-1 .4-1.3.3-.3.7-.5 1.1-.5.4 0 .8.1 1 .3.3.2.4.6.5 1 .3-.5.7-.8 1.3-1.1.6-.2 1.1-.4 1.7-.4.9 0 1.6.2 2.2.5.6.4 1.2.8 1.6 1.4.4.6.7 1.3 1 2 .2.7.3 1.5.3 2.3 0 .7-.1 1.5-.4 2.2-.2.7-.6 1.3-1 1.9-.5.6-1 1-1.6 1.4-.6.3-1.4.5-2.2.5-.5 0-1-.1-1.5-.3-.5-.2-1-.5-1.4-.8v3.9c0 .5-.1 1-.4 1.3-.3.3-.7.5-1.1.5-.5 0-.9-.2-1.1-.5-.3-.3-.4-.7-.4-1.3v-13zm3.2 4.2c0 .4 0 .8.1 1.2.1.4.2.8.5 1.1.2.3.5.6.8.8.3.2.7.3 1.1.3.4 0 .8-.1 1.1-.3s.6-.4.8-.7c.2-.3.4-.7.5-1 .1-.4.2-.8.2-1.1 0-.4-.1-.8-.2-1.1-.1-.4-.3-.7-.5-1-.2-.3-.5-.6-.8-.8-.3-.2-.7-.3-1.1-.3-.4 0-.8.1-1.1.3-.3.2-.6.4-.8.7-.2.3-.4.6-.5 1s-.1.5-.1.9z"/></g></svg>