<svg id="asLayer_1" xmlns="http://www.w3.org/2000/svg" width="32" height="32" viewBox="0 0 128 128"><style>.asst0{fill:#546e7a}.asst1{fill:#ffa000}.asst2{fill:#b0bec5}</style><path class="asst0" d="M104.9 28.9H23.1c-3.2 0-5.8 2.6-5.8 5.8v58.5c0 3.2 2.6 5.8 5.8 5.8H105c3.2 0 5.8-2.6 5.8-5.8V34.8c0-3.3-2.6-5.9-5.9-5.9zm0 64.3H23.1V34.8H105v58.4z"/><path class="asst1" d="M40.6 46.5c3.2 0 5.8 2.6 5.8 5.8s-2.6 5.8-5.8 5.8-5.8-2.6-5.8-5.8 2.6-5.8 5.8-5.8m0-5.9c-6.5 0-11.7 5.2-11.7 11.7S34.2 64 40.6 64s11.7-5.2 11.7-11.7-5.2-11.7-11.7-11.7z"/><path class="asst2" d="M37.7 87.4c-.7 0-1.5-.3-2.1-.9-1.1-1.1-1.1-3 0-4.1l17.5-17.5c.9-.9 2.3-1.1 3.4-.5l9.5 4.8 16.1-21.4c.6-.8 1.5-1.2 2.4-1.2 1 0 1.8.5 2.4 1.3l11.7 17.5c.9 1.3.5 3.2-.8 4.1-1.3.9-3.2.5-4.1-.8l-9.4-14.1-15 19.9c-.8 1.1-2.4 1.5-3.6.9l-9.8-4.9-16.1 16c-.6.6-1.4.9-2.1.9z"/></svg>