<svg id="arLayer_1" xmlns="http://www.w3.org/2000/svg" width="24.5" height="32" viewBox="0 0 49 64"><style>.arst0{fill:#f2f2f2}.arst1{fill:#d1d1d1}</style><path class="arst0" d="M28.8 39.6c-.2-.3-.5-.5-.8-.7-.3-.2-.7-.3-1.1-.3-.4 0-.8.1-1.1.3-.3.2-.6.5-.8.8-.2.3-.4.7-.5 1-.1.4-.2.8-.2 1.1 0 .4.1.7.2 1.1.1.4.3.7.5 1 .2.3.5.6.8.7.3.2.7.3 1.1.3.4 0 .8-.1 1.1-.3.3-.2.6-.5.8-.8.2-.3.4-.7.5-1.1.1-.4.1-.8.1-1.2 0-.4-.1-.8-.2-1.1s-.2-.5-.4-.8z"/><path class="arst0" d="M32.1 0h-27C2.3 0 0 2.3 0 5.1v53.8C0 61.7 2.3 64 5.1 64h38.8c2.8 0 5.1-2.3 5.1-5.1V16.8L32.1 0zm-12 44.2c-.2.7-.6 1.3-1 1.9s-1 1-1.6 1.4c-.8.3-1.5.5-2.3.5-.5 0-1-.1-1.5-.3-.5-.2-1-.5-1.4-.8v3.9c0 .5-.1 1-.4 1.3-.3.3-.7.5-1.1.5s-.9-.3-1.2-.6c-.3-.3-.4-.7-.4-1.3V37.6c0-.5.1-1 .4-1.3.3-.3.7-.5 1.1-.5.4 0 .8.1 1 .3.3.2.4.6.5 1 .3-.5.7-.8 1.3-1.1.6-.2 1.1-.4 1.7-.4.9 0 1.6.2 2.2.5.6.4 1.2.8 1.6 1.4.4.6.7 1.3 1 2 .2.7.3 1.5.3 2.3.1 1 0 1.7-.2 2.4zm12.5 1.9c0 .5-.1 1-.4 1.3-.3.3-.7.5-1.1.5-.4 0-.8-.1-1-.3s-.4-.6-.5-1c-.3.5-.7.8-1.3 1.1-.5.2-1.1.4-1.6.4-.8 0-1.5-.2-2.2-.5-.6-.3-1.2-.8-1.6-1.4-.5-.6-.8-1.2-1-1.9-.2-.7-.4-1.4-.4-2.2 0-.8.1-1.5.3-2.3.2-.7.5-1.4 1-2 .4-.6 1-1.1 1.6-1.4.6-.4 1.4-.5 2.2-.5.6 0 1.1.1 1.6.3.5.2 1 .5 1.4.8v-4.3c0-.5.1-1 .4-1.3.3-.3.7-.5 1.1-.5s.9.2 1.1.5c.3.3.4.7.4 1.3v13.4zm7.8-7.6c-.3.2-.7.3-1.2.3h-1v7.3c0 .5-.1 1-.4 1.3-.3.3-.7.5-1.1.5-.5 0-.9-.2-1.1-.5-.3-.3-.4-.7-.4-1.3v-7.3h-.7c-.4 0-.8-.1-1-.4-.2-.2-.4-.6-.4-1s.1-.7.4-1c.3-.3.6-.4 1-.4h.7v-1.6c0-1.2.3-2.1.9-2.7.6-.6 1.4-.9 2.4-.9.3 0 .5 0 .8.1.3 0 .5.1.7.2.2.1.4.3.5.4.1.2.2.4.2.7 0 .9-.4 1.3-1.3 1.3H39c-.1 0-.2.1-.3.1s-.2.2-.2.3-.1.4-.1.7V36h1c.5 0 .9.1 1.2.3.3.2.5.6.5 1.1-.2.5-.4.9-.7 1.1z"/><path class="arst0" d="M16.6 39.7c-.2-.3-.5-.6-.8-.8-.3-.2-.7-.3-1.1-.3-.4 0-.8.1-1.1.3s-.6.4-.8.7c-.2.3-.4.6-.5 1-.1.4-.2.8-.2 1.1 0 .4 0 .8.1 1.2.1.4.2.8.5 1.1.2.3.5.6.8.8.3.2.7.3 1.1.3.4 0 .8-.1 1.1-.3.3-.2.6-.4.8-.7.2-.3.4-.7.5-1 .1-.4.2-.8.2-1.1 0-.4-.1-.8-.2-1.1 0-.5-.1-.9-.4-1.2z"/><path class="arst1" d="M49 15.9V18H35.2c-2.9 0-4.2-2.3-4.2-5.2V0h2.1L49 15.9z"/></svg>