<svg id="acLayer_1" xmlns="http://www.w3.org/2000/svg" viewBox="0 0 512 512" width="32" height="32"><style>.acst0{fill:#fff}</style><path class="acst0" d="M453.1 125.4h-63.9c-3.6 0-7-1.4-9.5-3.9l-44.2-44.3-.2-.2-.1-.1C328 69.7 318 65.3 307 65.3H206.9c-11.6 0-22 5-29.4 13v-.1l-43.2 43.3c-2.5 2.5-5.9 3.9-9.5 3.9H59.1c-29.5 0-53.5 24-53.5 53.5v213.6c0 29.5 24 53.5 53.5 53.5H453c29.6 0 53.5-24 53.5-53.5V178.9c.1-29.5-23.9-53.5-53.4-53.5zM192.2 91.9c3.9-4.2 9.1-6.5 14.6-6.5H307c5.3 0 10.3 2.1 14.2 5.9l48.2 48.3 1.9 1.9c2.5 2.5 5.9 3.9 9.5 3.9H466.4c11 0 20 9 20 20v240.4c0 11-9 20-20 20H59.1c-18.4 0-33.5-15.1-33.5-33.5V178.9c0-18.5 15-33.5 33.5-33.5h73.8c3.6 0 7-1.4 9.5-3.9l1.9-1.9 24.3-24.3 23.6-23.4z"/><path class="acst0" d="M256.1 145.5c-71.9 0-130.2 58.3-130.2 130.2S184.2 406 256.1 406s130.2-58.3 130.2-130.3S328 145.5 256.1 145.5zm0 240.4c-60.8 0-110.2-49.4-110.2-110.2s49.4-110.2 110.2-110.2 110.2 49.4 110.2 110.2c0 60.7-49.4 110.2-110.2 110.2z"/><path class="acst0" d="M256.1 185.5c-49.8 0-90.2 40.3-90.2 90.1s40.4 90.2 90.2 90.2 90.2-40.4 90.2-90.2-40.4-90.1-90.2-90.1zm0 160.3c-38.7 0-70.1-31.5-70.1-70.1s31.5-70.1 70.1-70.1 70.1 31.4 70.1 70.1-31.4 70.1-70.1 70.1z"/></svg>