<svg id="aoLayer_1" xmlns="http://www.w3.org/2000/svg" width="32" height="32" viewBox="0 0 32 32"><style>.aost0{fill:#111}.aost1{fill:#f4b300}</style><circle class="aost0" cx="16" cy="16" r="16"/><path class="aost1" d="M24.7 22.2c0 2.1-5.4 3.1-8.6 3.1s-8.6-1-8.6-3.1c0-.3.1-.6.4-.9 2.9-6 2.2-8.8 3.8-11.1.7-1 1.6-1.6 2.9-1.9.1-.8.7-1.4 1.5-1.4s1.5.6 1.5 1.4c1.4.3 2.2.9 2.9 1.9 1.6 2.2.8 5.1 3.8 11.1.2.2.4.5.4.9zm-1.8-.6c-1.2-1.5-4.5-1.8-6.8-1.8-2.4 0-5.6.3-6.8 1.8 1.2 1.5 4.5 1.8 6.8 1.8 2.4 0 5.6-.3 6.8-1.8zm-8.2-.8c0-.2.9-.2 1.4-.2 1.1 0 1.4.1 1.4.2 0 .8-.6 1.5-1.4 1.5-.8.1-1.4-.6-1.4-1.5z"/></svg>