<svg height="32" viewBox="0 0 100 100" width="32" xmlns="http://www.w3.org/2000/svg" shape-rendering="geometricPrecision" text-rendering="geometricPrecision" image-rendering="optimizeQuality" fill-rule="evenodd" clip-rule="evenodd"><defs><style>.azfil0{fill:#008dd2}</style></defs><path class="azfil0" d="M87.5 50v-3.043c0-6.476-.751-12.949-.751-12.949s-.732-5.516-2.98-7.946c-2.854-3.183-6.05-3.203-7.515-3.382-10.495-.814-26.238-.814-26.238-.814h-.035s-15.742 0-26.237.814c-1.465.18-4.658.2-7.514 3.383-2.246 2.429-2.98 7.945-2.98 7.945s-.75 6.472-.75 12.947v6.09c0 6.474.75 12.947.75 12.947s.734 5.516 2.98 7.945c2.856 3.184 6.049 3.204 7.514 3.383 10.495.814 26.237.814 26.237.814h.035s15.743 0 26.238-.814c1.465-.18 4.661-.2 7.514-3.382 2.249-2.43 2.981-7.946 2.981-7.946s.75-6.473.75-12.949V50zM40.634 34.375v31.25L65.625 50 40.634 34.375zm43.005-.036c-.253-1.719-1.078-4.961-2.181-6.172-1.702-1.868-3.16-2.142-5.515-2.378-8.6-.86-17.294-.798-25.927-.798h-.035c-8.633 0-17.325-.061-25.926.798-2.355.236-3.812.509-5.515 2.378-1.116 1.226-1.948 4.538-2.19 6.238a111.695 111.695 0 0 0-.725 12.55v6.09c0 4.11.252 8.456.725 12.55.242 1.7 1.074 5.012 2.19 6.238 1.703 1.87 3.16 2.142 5.515 2.378 8.601.86 17.293.798 25.926.798h.035c8.633 0 17.326.061 25.927-.798 2.354-.236 3.813-.51 5.515-2.378 1.117-1.226 1.95-4.538 2.191-6.238.473-4.096.726-8.44.726-12.552v-6.086c0-2.886-.144-5.785-.366-8.662-.102-1.315-.276-2.65-.37-3.956z" id="azEbene_x0020_1"/></svg>