<svg id="ahLayer_1" xmlns="http://www.w3.org/2000/svg" width="24.5" height="32" viewBox="0 0 49 64"><style>.ahst0{fill:#f2f2f2}.ahst1{fill:#d1d1d1}</style><path class="ahst0" d="M32.1 0h-27C2.3 0 0 2.3 0 5.1v53.8C0 61.7 2.3 64 5.1 64h38.8c2.8 0 5.1-2.3 5.1-5.1V16.8L32.1 0zM18.7 46.1c0 .5-.1 1-.4 1.3-.3.3-.7.5-1.1.5-.4 0-.8-.1-1-.3-.3-.2-.4-.6-.5-1-.3.5-.7.8-1.3 1.1-.5.2-1.1.4-1.6.4-.8 0-1.5-.2-2.2-.5-.6-.3-1.2-.8-1.6-1.4-.5-.6-.8-1.2-1-1.9-.2-.7-.4-1.4-.4-2.2 0-.8.1-1.5.3-2.3.2-.7.5-1.4 1-2 .4-.6 1-1.1 1.6-1.4.6-.4 1.4-.5 2.2-.5.6 0 1.1.1 1.6.3.5.2 1 .5 1.4.8v-4.3c0-.5.1-1 .4-1.3.3-.3.7-.5 1.1-.5.5 0 .9.2 1.1.5.3.3.4.7.4 1.3v13.4zM31 44.2c-.3.7-.7 1.4-1.2 1.9-.5.6-1.1 1-1.8 1.3-.7.3-1.5.5-2.3.5s-1.6-.2-2.3-.5c-.7-.3-1.3-.8-1.8-1.3s-.9-1.2-1.2-1.9c-.3-.7-.4-1.5-.4-2.3 0-.8.1-1.6.4-2.3.3-.7.7-1.4 1.2-2 .5-.6 1.1-1 1.8-1.4.7-.3 1.5-.5 2.3-.5s1.6.2 2.3.5c.7.3 1.3.8 1.8 1.4.5.6.9 1.2 1.2 2 .3.7.4 1.5.4 2.3 0 .8-.1 1.6-.4 2.3zm4.6-1.1c.1.4.3.7.5 1s.5.5.8.7.7.3 1.1.3c.2 0 .4 0 .7-.1.2-.1.5-.1.7-.2.2-.1.4-.2.6-.2.2-.1.3-.1.4-.1.4 0 .7.1 1 .4s.4.6.4 1-.1.8-.4 1c-.3.3-.6.5-1.1.7-.4.2-.8.3-1.3.4-.4-.1-.8 0-1 0-.9 0-1.6-.2-2.3-.5-.7-.3-1.3-.8-1.8-1.3-.5-.6-.9-1.2-1.2-1.9-.3-.7-.4-1.5-.4-2.3 0-.8.1-1.6.4-2.3.3-.7.7-1.4 1.2-2 .5-.6 1.1-1 1.8-1.4.7-.3 1.5-.5 2.3-.5.3 0 .7 0 1.1.1.4.1.9.2 1.3.3s.7.4 1 .6.4.6.4 1c0 .2 0 .3-.1.5s-.1.3-.2.5c-.1.1-.2.3-.4.4-.1.1-.3.1-.5.1s-.4 0-.6-.1c-.2-.1-.4-.1-.6-.2s-.4-.1-.6-.2c-.2-.1-.5-.1-.7-.1-.5 0-.8.1-1.2.3s-.6.4-.8.7c-.2.3-.4.6-.5 1-.1.4-.2.8-.2 1.2 0 .4.1.8.2 1.2z"/><path class="ahst0" d="M27.6 39.7c-.2-.3-.5-.6-.8-.8-.3-.2-.7-.3-1.1-.3s-.8.1-1.1.3c-.3.2-.6.5-.8.8-.2.3-.4.7-.5 1-.1.4-.1.8-.1 1.1 0 .4.1.8.2 1.1.1.4.3.7.5 1 .2.3.5.5.8.7s.7.3 1.1.3c.4 0 .8-.1 1.1-.3.3-.2.6-.4.8-.7.2-.3.4-.6.5-1 .1-.4.2-.8.2-1.1 0-.4 0-.8-.1-1.1-.3-.3-.5-.7-.7-1zM14.9 39.6c-.2-.3-.5-.5-.8-.7s-.7-.3-1.1-.3c-.4 0-.8.1-1.1.3-.3.2-.6.5-.8.8-.2.3-.4.7-.5 1-.1.4-.2.8-.2 1.1 0 .4.1.7.2 1.1.1.4.3.7.5 1 .2.3.5.6.8.7.3.2.7.3 1.1.3.4 0 .8-.1 1.1-.3.3-.2.6-.5.8-.8s.4-.7.5-1.1c.1-.4.1-.8.1-1.2 0-.4-.1-.8-.2-1.1s-.2-.5-.4-.8z"/><path class="ahst1" d="M49 15.9V18H35.2c-2.9 0-4.2-2.3-4.2-5.2V0h2.1L49 15.9z"/></svg>