<svg id="awLayer_1" xmlns="http://www.w3.org/2000/svg" width="24.5" height="32" viewBox="0 0 49 64"><style>.awst0{fill:#e28500}.awst1{fill:#ffcf8b}.awst2{enable-background:new}.awst3{fill:#fff}</style><path class="awst0" d="M49 16.8v42.1c0 2.8-2.3 5.1-5.1 5.1H5.1C2.3 64 0 61.7 0 58.9V5.1C0 2.3 2.3 0 5.1 0h27L49 16.8z"/><path class="awst1" d="M49 15.9V18H35.2c-2.9 0-4.2-2.3-4.2-5.2V0h2.1L49 15.9z"/><g class="awst2"><path class="awst3" d="M9.1 37.6c0-.5.1-1 .4-1.3.3-.3.7-.5 1.1-.5.4 0 .8.1 1 .3.3.2.4.6.5 1 .3-.5.7-.8 1.3-1.1.6-.2 1.1-.4 1.7-.4.9 0 1.6.2 2.2.5.6.4 1.2.8 1.6 1.4.4.6.7 1.3 1 2 .2.7.3 1.5.3 2.3 0 .7-.1 1.5-.4 2.2-.2.7-.6 1.3-1 1.9s-1 1-1.6 1.4c-.5.5-1.2.7-2 .7-.5 0-1-.1-1.5-.3-.5-.2-1-.5-1.4-.8v3.9c0 .5-.1 1-.4 1.3-.3.3-.7.5-1.1.5s-.9-.3-1.2-.6c-.3-.3-.4-.7-.4-1.3V37.6zm3.2 4.2c0 .4 0 .8.1 1.2.1.4.2.8.5 1.1.2.3.5.6.8.8.3.2.7.3 1.1.3.4 0 .8-.1 1.1-.3.3-.2.6-.4.8-.7.2-.3.4-.7.5-1 .1-.4.2-.8.2-1.1 0-.4-.1-.8-.2-1.1-.1-.4-.3-.7-.5-1-.2-.3-.5-.6-.8-.8-.3-.2-.7-.3-1.1-.3-.4 0-.8.1-1.1.3s-.6.4-.8.7c-.2.3-.4.6-.5 1 0 .1-.1.5-.1.9zM21.8 37.6c0-.5.1-1 .4-1.3.3-.3.7-.5 1.1-.5.4 0 .8.1 1 .3.3.2.4.6.5 1 .3-.5.7-.8 1.3-1.1.6-.2 1.1-.4 1.7-.4.9 0 1.6.2 2.2.5.6.4 1.2.8 1.6 1.4.4.6.7 1.3 1 2 .2.7.3 1.5.3 2.3 0 .7-.1 1.5-.4 2.2-.2.7-.6 1.3-1 1.9-.5.6-1 1-1.6 1.4-.6.3-1.4.5-2.2.5-.5 0-1-.1-1.5-.3-.5-.2-1-.5-1.4-.8v3.9c0 .5-.1 1-.4 1.3-.3.3-.7.5-1.1.5s-.9-.2-1.1-.5c-.3-.3-.4-.7-.4-1.3v-13zm3.1 4.2c0 .4 0 .8.1 1.2.1.4.2.8.5 1.1.2.3.5.6.8.8.3.2.7.3 1.1.3.4 0 .8-.1 1.1-.3s.6-.4.8-.7c.2-.3.4-.7.5-1 .1-.4.2-.8.2-1.1 0-.4-.1-.8-.2-1.1-.1-.4-.3-.7-.5-1-.2-.3-.5-.6-.8-.8-.3-.2-.7-.3-1.1-.3-.4 0-.8.1-1.1.3-.3.2-.6.4-.8.7-.2.3-.4.6-.5 1s-.1.5-.1.9zM35.2 38.8h-.7c-.4 0-.8-.1-1-.4-.2-.2-.4-.6-.4-1s.1-.7.4-1c.3-.3.6-.4 1-.4h.7v-1.9c0-.5.1-1 .4-1.3.3-.3.7-.5 1.1-.5.5 0 .9.2 1.1.5.3.3.4.7.4 1.3V36h.9c.4 0 .8.1 1.1.3.3.2.5.6.5 1.1 0 .5-.2.9-.5 1.1-.3.2-.7.3-1.1.3h-.9v7.3c0 .5-.1 1-.4 1.3-.3.3-.7.5-1.1.5-.5 0-.9-.2-1.1-.5-.3-.3-.4-.7-.4-1.3v-7.3z"/></g></svg>