<svg id="bbLayer_1" xmlns="http://www.w3.org/2000/svg" width="24.5" height="32" viewBox="0 0 49 64"><style>.bbst0{fill:#f2f2f2}.bbst1{fill:#d2d2d2}</style><path class="bbst0" d="M34.3 39.7c-.2-.3-.5-.6-.8-.8-.3-.2-.7-.3-1.1-.3-.4 0-.8.1-1.1.3-.3.2-.6.4-.8.7-.2.3-.4.6-.5 1v1.2c0 .4 0 .8.1 1.2.1.4.2.8.5 1.1s.5.6.8.8c.3.2.7.3 1.1.3.4 0 .8-.1 1.1-.3.3-.2.6-.4.8-.7.2-.3.4-.7.5-1 .1-.4.2-.8.2-1.1 0-.4-.1-.8-.2-1.1-.2-.6-.4-1-.6-1.3z"/><path class="bbst0" d="M32.1 0h-27C2.3 0 0 2.3 0 5.1V59c0 2.7 2.3 5 5.1 5h38.8c2.8 0 5.1-2.3 5.1-5.1V16.8L32.1 0zM20.4 47.4c-.3.2-.6.4-1 .4H12c-.4 0-.7-.1-.9-.3-.3-.2-.4-.4-.4-.8 0-.2 0-.3.1-.5s.1-.3.2-.4l5-7h-3.7c-.4 0-.7-.1-1-.4-.3-.2-.4-.6-.4-1s.1-.8.4-1c.3-.2.6-.4 1-.4h7.5c.1 0 .2.1.3.1l.3.3c.1.1.1.3.1.5s0 .4-.1.5c-.1.1-.1.3-.3.4l-5 7h4.2c.4 0 .7.1 1 .4.3.2.4.6.4 1 .1.6 0 .9-.3 1.2zm4.7-1.3c0 .5-.1 1-.4 1.3-.3.3-.7.5-1.1.5s-.9-.2-1.1-.5c-.3-.3-.4-.7-.4-1.3v-8.4c0-.5.1-1 .4-1.3.3-.3.7-.5 1.1-.5s.9.2 1.1.5c.3.3.4.7.4 1.3v8.4zm-.4-11.9c-.3.4-.8.5-1.3.5-.2 0-.5-.1-.7-.2-.2-.1-.4-.2-.6-.4-.2-.2-.3-.4-.4-.6-.1-.2-.1-.5-.1-.7 0-.2 0-.4.1-.6.1-.2.2-.4.4-.6.2-.2.4-.3.6-.4.2-.1.4-.1.7-.1.2 0 .5 0 .7.1.2.1.4.2.6.4.2.2.3.3.4.5s.1.4.1.7c.1.6-.1 1-.5 1.4zm13 10c-.2.7-.6 1.3-1 1.9-.5.6-1 1-1.7 1.4-.6.3-1.4.5-2.2.5-.5 0-1-.1-1.5-.3-.5-.2-1-.5-1.4-.8v3.9c0 .5-.1 1-.4 1.3-.3.3-.7.5-1.1.5-.5 0-.9-.2-1.1-.5-.3-.3-.4-.7-.4-1.3V37.6c0-.5.1-1 .4-1.3.3-.3.7-.5 1.1-.5.4 0 .8.1 1 .3s.4.6.5 1c.3-.5.7-.8 1.3-1.1.6-.2 1.1-.4 1.7-.4.9 0 1.6.2 2.2.5.6.4 1.2.8 1.6 1.4.4.6.7 1.3 1 2s.3 1.5.3 2.3c.1 1 0 1.7-.3 2.4z"/><title>zips-hover</title><path class="bbst1" d="M49 15.9V18H35.2c-2.9 0-4.2-2.3-4.2-5.2V0h2.1L49 15.9z"/></svg>