<svg id="amLayer_1" data-name="Layer 1" xmlns="http://www.w3.org/2000/svg" viewBox="0 0 477.59 148.03" width="32" height="9.92"><defs><style>.amcls-1{fill:#fff}</style></defs><title>mars-gwapo-logo</title><path class="amcls-1" d="M3.65 106.29h7.71l7.11 28.5 7.01-28.5h5.51l6.89 28.5 7.16-28.5h7.72l-11.85 40.74H34.9l-6.62-26.95-6.77 26.95h-6.02L3.65 106.29zM56.62 106.29H78.5v7.34H64.17V123h13.72v7.33H64.17v9.37H78.5v7.33H56.62v-40.74zM114.33 106.3h5.9l17.14 40.7H129l-4.41-10.53h-14.4L105.67 147h-8.32zm7.33 22.87l-4.36-12.35-4.35 12.35h8.71zM139.69 106.29h11.8c3.86.06 7.5.28 10.58 2.87a13.32 13.32 0 0 1 4.74 10 14.5 14.5 0 0 1-3.36 8.88 13.36 13.36 0 0 1-7.22 3.92l11 15h-9.31l-10.59-15.6h-.11V147h-7.55v-40.71zm11.68 19.41c2 0 4.52-.28 6-1.71a6 6 0 0 0 1.87-4.41 5.66 5.66 0 0 0-2.2-4.57c-1.77-1.32-3.53-1.38-5.63-1.38h-4.19v12.07h4.14zM171.66 106.29h21.88v7.34h-14.33V123h13.73v7.33h-13.73v9.37h14.33v7.33h-21.88v-40.74zM215.75 147v-40.71h9.59c3.91 0 7.61-.17 11 2.15a12.43 12.43 0 0 1 5.4 10.25 13.14 13.14 0 0 1-4.85 10.42c-3.36 2.7-8.1 2.48-12.13 2.48h-1.49V147h-7.55zm8.93-22.76a20.83 20.83 0 0 0 5.84-.44 5.21 5.21 0 0 0 3.69-5 5 5 0 0 0-3.91-4.85 24.24 24.24 0 0 0-5.62-.33h-1.38v10.64h1.38zM246.62 106.29h11.8c3.86.06 7.5.28 10.58 2.87a13.32 13.32 0 0 1 4.74 10 14.5 14.5 0 0 1-3.36 8.88 13.37 13.37 0 0 1-7.22 3.92l11 15h-9.32l-10.59-15.6h-.11V147h-7.55v-40.71zm11.68 19.41c2 0 4.52-.28 6-1.71a6 6 0 0 0 1.87-4.41A5.66 5.66 0 0 0 264 115c-1.76-1.32-3.53-1.38-5.62-1.38h-4.19v12.08h4.13z"/><path class="amcls-1" d="M318.94 126.85a21.22 21.22 0 1 1-21.23-21.33 21.23 21.23 0 0 1 21.23 21.33m-34.9-.16a13.68 13.68 0 1 0 27.34 0 13.67 13.67 0 1 0-27.34 0M331.53 106.29v25.41c0 1.88-.11 3.81.78 5.51a6.07 6.07 0 0 0 5.4 3.47 6.2 6.2 0 0 0 5.12-2.87c1.16-1.87 1.11-4 1.11-6.12v-25.4h7.55v25.41c0 4-.33 7.83-3 11a14.53 14.53 0 0 1-10.8 5.29 14.67 14.67 0 0 1-10.42-5c-3-3.36-3.3-7.12-3.3-11.36v-25.34h7.55zM358.36 106.29h8.54c6.07.06 12.3.66 17.09 4.74 4.47 3.75 7 10 7 15.82a20.92 20.92 0 0 1-7 15.49c-4.91 4.19-10.69 4.68-16.93 4.68h-8.71v-40.73zm8.49 33.41c4.25 0 8.16-.17 11.68-2.76a12.63 12.63 0 0 0 4.91-10.08 13 13 0 0 0-5.44-10.81c-3.42-2.31-7.6-2.43-11.57-2.43h-.55v26.08h.94zM451.82 126.85a21.22 21.22 0 1 1-21.23-21.33 21.23 21.23 0 0 1 21.23 21.33m-34.89-.16c0 7.55 6.23 14 13.67 14a14 14 0 0 0 13.67-14 13.67 13.67 0 1 0-27.34 0M456.86 106.29h20.73v7.34h-13.17V123h12.57v7.33h-12.57v16.7h-7.56v-40.74zM86.07 38.48q.12 1.42.18 2.84t.06 2.68q0 14.09-7.22 24.62a42.06 42.06 0 0 1-15.57 13.9 43.31 43.31 0 0 1-20.3 5A41.33 41.33 0 0 1 12 74.11Q0 61.45 0 42.86a41.82 41.82 0 0 1 12.78-30.43A42.17 42.17 0 0 1 43.45 0a41.79 41.79 0 0 1 13 2A42.3 42.3 0 0 1 67.9 7.76a43.78 43.78 0 0 1 9.41 9.11A45.65 45.65 0 0 1 83.94 29H60.5a27.88 27.88 0 0 0-8.11-6.15 21.91 21.91 0 0 0-17.82-.24 22.14 22.14 0 0 0-7 4.8 22.64 22.64 0 0 0-4.68 7 21.53 21.53 0 0 0-1.7 8.59A23.43 23.43 0 0 0 23 52.27a25.09 25.09 0 0 0 4.85 7.52 22.53 22.53 0 0 0 7 5 19.6 19.6 0 0 0 8.34 1.83 21.23 21.23 0 0 0 10.89-2.9 21.67 21.67 0 0 0 8.05-8.47h-24V38.48h48zM92.47 85.83V1.65h27.94a81.24 81.24 0 0 1 11.9.77 21.25 21.25 0 0 1 9.41 3.85q11.36 7.92 11.37 23.55 0 10.3-5 17.46a24.5 24.5 0 0 1-14 9.65l20.6 28.89h-25.52l-16.1-27.11v27.12h-20.6zm24.63-45.34q7.69 0 11.42-2.25t3.73-7.93q0-5.33-3.32-7.58t-10.18-2.25h-5.68v20h4zM157.23 42.86A41.73 41.73 0 0 1 170 12.43Q182.56.12 200.67.12a41.83 41.83 0 0 1 16.22 3.2 43.5 43.5 0 0 1 13.85 9.23 44.79 44.79 0 0 1 9.71 14.21 41.81 41.81 0 0 1 3.31 16.45 46.27 46.27 0 0 1-3.08 17 41.35 41.35 0 0 1-9.12 14A42.38 42.38 0 0 1 217.43 84a43 43 0 0 1-16.87 3.37q-18.82 0-31.37-13.26-12-12.67-12-31.26m21.19.24a23.09 23.09 0 0 0 1.83 9.23 24.76 24.76 0 0 0 4.92 7.46 22.31 22.31 0 0 0 7 5 20.14 20.14 0 0 0 8.34 1.78 21.44 21.44 0 0 0 8.52-1.72 20.55 20.55 0 0 0 7-4.85 23.2 23.2 0 0 0 4.68-7.46 25.29 25.29 0 0 0 1.72-9.41 21.84 21.84 0 0 0-1.72-8.65 22.66 22.66 0 0 0-4.68-7 21.78 21.78 0 0 0-6.87-4.74A20.68 20.68 0 0 0 200.8 21a22.56 22.56 0 0 0-8.8 1.67 22 22 0 0 0-13.58 20.43M263.9 85.83L241.17 1.65h22.25l11.25 48.19 12.08-48.19h18.23l11.96 48.19L328.3 1.65h22.14l-22.73 84.18h-18.94l-12.9-47-13.03 47H263.9zM371.92 85.83V21.19h-15.63V1.65h52.21v19.54h-15.98v64.64h-20.6zM455.45 53.63h-21.07v32.2h-20.6V1.66h20.6v31.97h21.07V1.66h20.72v84.17h-20.72v-32.2z"/></svg>